<svg width="219" height="62" viewBox="0 0 219 62" fill="none" xmlns="http://www.w3.org/2000/svg">
<path d="M203.934 44.4963C203.776 44.4942 203.62 44.4586 203.477 44.3919C203.334 44.3252 203.206 44.2288 203.103 44.1092C201.379 42.4918 199.248 41.3721 196.938 40.8693C194.364 40.1802 191.646 40.2499 189.111 41.07C188.875 41.173 188.61 41.1892 188.364 41.1157C188.117 41.0423 187.904 40.8839 187.763 40.6686C187.623 40.4431 187.568 40.1749 187.607 39.9122C187.647 39.6495 187.778 39.4095 187.978 39.235C189.825 37.32 191.075 34.9093 191.577 32.2964C192.121 29.9941 192.037 27.5879 191.333 25.3292C191.241 25.1227 191.216 24.8924 191.263 24.6711C191.309 24.4497 191.424 24.2486 191.591 24.0964C191.757 23.9445 191.966 23.8477 192.19 23.8194C192.413 23.7912 192.64 23.8328 192.838 23.9386C195.188 25.4307 196.977 27.6589 197.928 30.2751C200.323 29.3668 202.822 28.7601 205.368 28.4688C205.57 28.4446 205.775 28.479 205.958 28.568C206.141 28.657 206.294 28.7967 206.4 28.9705C206.512 29.1409 206.571 29.3403 206.571 29.544C206.571 29.7477 206.512 29.9469 206.4 30.1174C205.028 32.2858 203.385 34.2706 201.512 36.0237C203.457 38.0092 204.683 40.5876 204.995 43.3494C205.013 43.5754 204.957 43.8009 204.835 43.9922C204.714 44.1835 204.533 44.3302 204.321 44.4103C204.2 44.466 204.068 44.4953 203.934 44.4963ZM192.91 38.2602C194.425 38.2677 195.934 38.4407 197.411 38.7763C199.036 39.1729 200.599 39.7903 202.056 40.6112C201.36 39.1561 200.386 37.851 199.189 36.7692C199.08 36.6627 198.994 36.5355 198.935 36.3953C198.876 36.255 198.845 36.1043 198.845 35.9521C198.848 35.8017 198.882 35.6537 198.947 35.5178C199.011 35.3819 199.103 35.2611 199.218 35.1636C200.666 33.92 201.977 32.5264 203.131 31.0062C201.263 31.3796 199.441 31.9565 197.698 32.7265C197.558 32.7864 197.406 32.8173 197.254 32.8173C197.101 32.8173 196.95 32.7864 196.809 32.7265C196.67 32.6637 196.546 32.5707 196.447 32.4542C196.348 32.3377 196.276 32.2005 196.236 32.0528C195.765 30.5186 195.006 29.0883 194 27.838C194.105 29.5048 193.985 31.1781 193.641 32.8125C193.194 34.7483 192.464 36.608 191.476 38.3319C191.949 38.2745 192.466 38.2602 192.881 38.2602H192.91Z" fill="#975237"/>
<path d="M14.285 44.4963C14.1466 44.4969 14.0096 44.4675 13.8836 44.4103C13.6716 44.3303 13.4913 44.1835 13.3697 43.9922C13.2482 43.8009 13.1921 43.5754 13.2098 43.3494C13.5287 40.5894 14.7538 38.013 16.6934 36.0237C14.8203 34.27 13.1777 32.2853 11.8049 30.1174C11.6947 29.9458 11.6356 29.7465 11.6344 29.5426C11.6332 29.3387 11.6901 29.1386 11.7983 28.9658C11.9065 28.793 12.0616 28.6545 12.2455 28.5665C12.4295 28.4785 12.6346 28.4446 12.8371 28.4688C15.3837 28.7693 17.8831 29.3857 20.2774 30.3037C21.2369 27.6928 23.0242 25.4675 25.3666 23.9673C25.5653 23.8615 25.7919 23.8199 26.0153 23.8481C26.2386 23.8764 26.4477 23.9731 26.6139 24.125C26.7811 24.2773 26.896 24.4783 26.9423 24.6997C26.9887 24.921 26.964 25.1514 26.8719 25.3579C26.1663 27.6168 26.087 30.0248 26.6425 32.3252C27.139 34.9366 28.3842 37.3473 30.2265 39.2637C30.4293 39.4364 30.5628 39.6767 30.6023 39.9402C30.6418 40.2037 30.5847 40.4726 30.4415 40.6973C30.3005 40.9125 30.0878 41.071 29.8412 41.1445C29.5945 41.2179 29.3298 41.2017 29.094 41.0987C26.5636 40.279 23.85 40.2093 21.2809 40.898C18.9654 41.397 16.8294 42.517 15.1022 44.1379C14.999 44.2519 14.8728 44.3428 14.732 44.4046C14.5911 44.4664 14.4388 44.4976 14.285 44.4963ZM15.0448 31.0062C16.2028 32.523 17.5143 33.9162 18.9585 35.1636C19.073 35.2611 19.1654 35.3819 19.2296 35.5178C19.2939 35.6538 19.3285 35.8018 19.3312 35.9521C19.3372 36.1052 19.3095 36.2577 19.25 36.3989C19.1906 36.5401 19.1008 36.6665 18.9872 36.7692C17.7947 37.8549 16.8214 39.1591 16.12 40.6112C17.5772 39.7903 19.14 39.1729 20.7648 38.7763C22.6995 38.3282 24.6905 38.1736 26.6712 38.3175C25.6854 36.5943 24.9607 34.7342 24.5208 32.7982C24.1645 31.1656 24.039 29.4911 24.1481 27.8237C23.141 29.0711 22.3863 30.5027 21.926 32.0384C21.883 32.1867 21.8081 32.3238 21.7066 32.4402C21.6051 32.5566 21.4794 32.6494 21.3383 32.7122C21.2004 32.7726 21.0515 32.8038 20.901 32.8038C20.7505 32.8038 20.6016 32.7726 20.4638 32.7122C18.7238 31.951 16.907 31.3791 15.0448 31.0062Z" fill="#975237"/>
<path d="M74.9113 61.1832C74.1762 61.1852 73.4422 61.1229 72.718 60.9968C70.2683 60.5106 67.975 59.4319 66.0383 57.8551C64.1015 56.2782 62.5804 54.2511 61.6077 51.9509C58.7405 45.0553 61.0629 36.1814 67.2417 30.8771C72.6749 26.218 80.7317 24.2396 88.7455 25.5728C97.1893 27.0064 104.214 31.9236 107.081 38.4751C108.773 42.5797 108.773 47.1868 107.081 51.2914C106.448 52.9585 105.488 54.482 104.257 55.7721C103.026 57.0623 101.549 58.0929 99.9131 58.8034C97.8617 59.726 95.5304 59.8084 93.419 59.0328C92.297 58.5852 91.3528 57.7818 90.7313 56.746C90.1098 55.7102 89.8453 54.4991 89.9783 53.2984C90.1275 52.6172 90.435 51.9806 90.8758 51.4401C91.3166 50.8997 91.8784 50.4706 92.5158 50.1875C93.0644 49.9212 93.6695 49.7926 94.2789 49.8126C94.8884 49.8325 95.4838 50.0006 96.0137 50.3022C96.259 50.4486 96.436 50.6864 96.5059 50.9634C96.5758 51.2403 96.5329 51.5336 96.3865 51.7788C96.2401 52.0241 96.0023 52.2011 95.7254 52.271C95.4485 52.3409 95.1551 52.2979 94.9099 52.1515C94.6855 52.0465 94.4408 51.9922 94.1931 51.9922C93.9454 51.9922 93.7007 52.0465 93.4763 52.1515C93.153 52.2898 92.8667 52.5019 92.6401 52.7707C92.4136 53.0396 92.2531 53.3578 92.1717 53.6998C92.1133 54.4263 92.291 55.1524 92.6785 55.7698C93.0659 56.3871 93.6424 56.8628 94.3221 57.1261C95.9147 57.6616 97.6509 57.5745 99.182 56.8824C100.566 56.2638 101.809 55.3704 102.837 54.2565C103.864 53.1426 104.655 51.8314 105.16 50.4026C105.892 48.6369 106.268 46.7443 106.268 44.8331C106.268 42.9218 105.892 41.0293 105.16 39.2636C102.594 33.3859 96.1858 28.9274 88.4444 27.6372C80.9898 26.4043 73.5925 28.1963 68.6466 32.454C63.1559 37.1705 61.0199 44.9979 63.586 51.0907C64.4182 53.0601 65.7193 54.7964 67.3759 56.1481C69.0324 57.4999 70.9943 58.4262 73.0907 58.8464C75.169 59.2019 77.3055 58.9624 79.2535 58.1558C81.2016 57.3492 82.882 56.0082 84.1006 54.2876C85.2195 52.5363 85.753 50.4747 85.6242 48.4005C85.4953 46.3263 84.7108 44.3466 83.3839 42.7472C81.9761 41.2548 80.0814 40.3147 78.0414 40.0965C76.0015 39.8783 73.9507 40.3964 72.2592 41.5574C71.4552 42.1197 70.809 42.8789 70.3823 43.7624C69.9556 44.646 69.7627 45.6242 69.8221 46.6035C69.934 47.4777 70.3616 48.2808 71.0243 48.8616C71.687 49.4425 72.5392 49.7611 73.4204 49.7574C73.7037 49.7213 73.9897 49.7993 74.2155 49.974C74.4413 50.1488 74.5885 50.4061 74.6246 50.6893C74.6608 50.9726 74.5829 51.2586 74.4081 51.4844C74.2334 51.7102 73.976 51.8574 73.6928 51.8935C72.2422 51.9736 70.8153 51.5002 69.7003 50.5688C68.5854 49.6375 67.8655 48.3176 67.6861 46.8759C67.5819 45.5209 67.8278 44.1618 68.4001 42.9292C68.9725 41.6965 69.8522 40.6318 70.9547 39.837C73.0725 38.3547 75.6529 37.6839 78.2245 37.9471C80.7961 38.2103 83.1872 39.39 84.9608 41.2706C86.6235 43.2149 87.6127 45.6449 87.7806 48.1977C87.9486 50.7505 87.2863 53.2891 85.8926 55.4345C84.6663 57.212 83.0256 58.6643 81.1124 59.6659C79.1992 60.6674 77.0709 61.1882 74.9113 61.1832Z" fill="#975237"/>
<path d="M5.15306 56.3663C3.90661 56.4059 2.68042 56.0441 1.65512 55.3342C1.10817 54.9074 0.672571 54.3547 0.385496 53.7232C0.0984215 53.0916 -0.0316132 52.3999 0.00649345 51.7072C0.00649345 51.422 0.119777 51.1486 0.321414 50.947C0.523051 50.7453 0.796525 50.632 1.08168 50.632C1.36684 50.632 1.64032 50.7453 1.84195 50.947C2.04359 51.1486 2.15687 51.422 2.15687 51.7072C2.12478 52.0664 2.18117 52.428 2.32112 52.7604C2.46107 53.0928 2.68031 53.3858 2.95968 53.6139C3.57663 53.953 4.25837 54.1577 4.96008 54.2146C5.6618 54.2714 6.36759 54.179 7.03107 53.9436C9.72621 53.1838 13.0808 50.7897 16.034 48.6823C18.9872 46.575 21.5246 44.783 23.632 44.2095C28.2625 42.9767 32.5202 44.568 36.6346 46.1162C40.749 47.6645 44.29 48.9834 48.3614 48.1376C54.4398 46.876 57.522 42.6469 60.7906 38.1741C64.7043 32.7982 69.134 26.7055 79.4272 25.5013C79.569 25.482 79.7132 25.4913 79.8514 25.5286C79.9896 25.5658 80.1189 25.6303 80.2318 25.7182C80.3448 25.806 80.4391 25.9156 80.5091 26.0403C80.5792 26.1651 80.6236 26.3027 80.6398 26.4448C80.6561 26.587 80.6437 26.731 80.6036 26.8683C80.5634 27.0057 80.4963 27.1337 80.406 27.2448C80.3158 27.3558 80.2043 27.4477 80.078 27.5151C79.9518 27.5825 79.8134 27.6241 79.6709 27.6373C70.3383 28.7268 66.3815 34.1744 62.5395 39.4357C59.1849 44.0518 55.7013 48.8114 48.8058 50.2306C44.1323 51.2055 39.9462 49.6428 35.9035 48.1232C31.8608 46.6036 28.1621 45.2561 24.1911 46.2883C21.7086 47.3335 19.3831 48.7182 17.2812 50.4027C14.027 52.7251 10.658 55.1192 7.60451 55.9793C6.80944 56.2222 5.98427 56.3524 5.15306 56.3663Z" fill="#975237"/>
<path d="M44.1608 50.4885C42.4342 50.6564 40.6938 50.3647 39.1163 49.6428C37.5389 48.9209 36.1804 47.7946 35.1789 46.3781C34.1773 44.9616 33.5682 43.3054 33.4135 41.5776C33.2587 39.8497 33.5638 38.1116 34.2977 36.5397C34.9104 35.0852 35.9164 33.8304 37.2029 32.9162C38.4894 32.002 40.0053 31.4646 41.5803 31.3644C42.968 31.3389 44.3373 31.6842 45.5469 32.3647C46.7566 33.0451 47.7628 34.036 48.4616 35.2351C49.0687 36.2201 49.3842 37.357 49.3715 38.514C49.3588 39.671 49.0184 40.8008 48.3899 41.7722C48.0167 42.3409 47.5341 42.8296 46.9704 43.2101C46.4066 43.5906 45.7728 43.8553 45.1058 43.9887C44.4389 44.1221 43.7521 44.1215 43.0853 43.9871C42.4186 43.8527 41.7852 43.5872 41.2219 43.2058C40.6491 42.741 40.2001 42.1418 39.915 41.4614C39.6298 40.7811 39.5174 40.0408 39.5877 39.3065C39.6358 38.8423 39.817 38.4019 40.1095 38.0382C40.4019 37.6745 40.7932 37.4031 41.2363 37.2565C41.5029 37.1774 41.7899 37.2048 42.0368 37.3328C42.2837 37.4608 42.4714 37.6795 42.5605 37.943C42.6496 38.2065 42.6331 38.4942 42.5144 38.7458C42.3958 38.9974 42.1844 39.1932 41.9244 39.2922C41.8384 39.2922 41.7524 39.2922 41.7094 39.5932C41.6953 39.9367 41.7545 40.2792 41.883 40.5981C42.0116 40.9169 42.2065 41.2048 42.4548 41.4425C43.1146 41.8612 43.9124 42.0041 44.6765 41.8406C45.4406 41.677 46.1099 41.2201 46.5406 40.5681C46.9519 39.9263 47.1705 39.18 47.1705 38.4177C47.1705 37.6554 46.9519 36.9091 46.5406 36.2673C46.0412 35.4051 45.321 34.6915 44.4542 34.2001C43.5874 33.7088 42.6053 33.4574 41.609 33.4718C40.4456 33.5601 39.3287 33.9665 38.3806 34.6467C37.4325 35.3268 36.6896 36.2544 36.2331 37.3282C35.625 38.6109 35.3807 40.0359 35.5267 41.4479C35.6727 42.8599 36.2034 44.2047 37.061 45.3359C37.9186 46.4671 39.0703 47.3412 40.3904 47.863C41.7106 48.3848 43.1486 48.5343 44.5479 48.2951C44.813 48.3107 45.0629 48.4237 45.2496 48.6126C45.4362 48.8014 45.5464 49.0527 45.5588 49.318C45.5713 49.5832 45.4852 49.8437 45.317 50.0492C45.1489 50.2547 44.9107 50.3908 44.6482 50.4312L44.1608 50.4885Z" fill="#975237"/>
<path d="M25.037 58.3733C23.8877 58.352 22.7644 58.028 21.7803 57.434C20.7961 56.84 19.9861 55.997 19.4317 54.99C18.8011 53.8783 18.4791 52.6182 18.4993 51.3403C18.5195 50.0623 18.881 48.813 19.5464 47.7217C20.2716 46.5229 21.2939 45.5315 22.5145 44.8434C23.735 44.1553 25.1124 43.7937 26.5136 43.7937C26.7987 43.7937 27.0722 43.907 27.2739 44.1086C27.4755 44.3103 27.5888 44.5838 27.5888 44.8689C27.5888 45.1541 27.4755 45.4276 27.2739 45.6292C27.0722 45.8308 26.7987 45.9441 26.5136 45.9441C25.486 45.9419 24.4752 46.2045 23.5788 46.7068C22.6823 47.209 21.9304 47.9338 21.3957 48.8113C20.9352 49.588 20.6922 50.4744 20.6922 51.3774C20.6922 52.2804 20.9352 53.1667 21.3957 53.9435C21.7921 54.6739 22.3916 55.2739 23.1218 55.6708C23.852 56.0677 24.6815 56.2446 25.5101 56.1799C26.0509 56.1366 26.5588 55.9029 26.9437 55.5205C27.0686 55.3863 27.1526 55.2191 27.1856 55.0388C27.2187 54.8584 27.1994 54.6723 27.13 54.5026C27.0603 54.384 27.0145 54.2529 26.9955 54.1166C26.9765 53.9804 26.9845 53.8417 27.0191 53.7085C27.0538 53.5754 27.1143 53.4503 27.1973 53.3406C27.2803 53.2309 27.3841 53.1386 27.5028 53.069C27.7431 52.9319 28.0276 52.8941 28.2954 52.9637C28.5632 53.0334 28.7932 53.2049 28.9364 53.4417C29.2401 53.9979 29.3633 54.6348 29.2888 55.2642C29.2143 55.8935 28.9458 56.4841 28.5206 56.954C27.7853 57.7835 26.7582 58.2971 25.6534 58.3876C25.4479 58.3969 25.2419 58.3921 25.037 58.3733Z" fill="#975237"/>
<path d="M143.322 61.1831C141.162 61.192 139.031 60.6745 137.115 59.6754C135.2 58.6763 133.556 57.2256 132.327 55.4487C130.933 53.3034 130.271 50.7647 130.439 48.212C130.607 45.6592 131.596 43.2292 133.258 41.2849C135.032 39.4043 137.423 38.2246 139.995 37.9613C142.566 37.6981 145.147 38.369 147.265 39.8513C148.367 40.646 149.247 41.7108 149.819 42.9435C150.391 44.1761 150.637 45.5351 150.533 46.8902C150.354 48.3293 149.636 49.647 148.524 50.578C147.412 51.509 145.989 51.9841 144.541 51.9077C144.401 51.8908 144.265 51.8464 144.142 51.7771C144.019 51.7078 143.911 51.6148 143.823 51.5037C143.736 51.3925 143.672 51.2653 143.634 51.1293C143.596 50.9932 143.585 50.851 143.602 50.7108C143.619 50.5705 143.663 50.4349 143.732 50.3118C143.802 50.1888 143.895 50.0805 144.006 49.9933C144.117 49.9061 144.244 49.8417 144.38 49.8037C144.516 49.7656 144.659 49.7548 144.799 49.7717C145.682 49.7816 146.537 49.4652 147.201 48.8832C147.865 48.3011 148.291 47.4944 148.397 46.6178C148.457 45.6385 148.264 44.6602 147.837 43.7767C147.41 42.8932 146.764 42.134 145.96 41.5716C144.27 40.4146 142.222 39.8987 140.185 40.1168C138.149 40.3349 136.257 41.2727 134.85 42.7615C133.521 44.3593 132.733 46.3382 132.602 48.4124C132.471 50.4867 133.002 52.549 134.119 54.3018C135.337 56.0224 137.018 57.3634 138.966 58.1701C140.914 58.9767 143.05 59.2161 145.129 58.8607C147.225 58.4405 149.187 57.5141 150.843 56.1624C152.5 54.8106 153.801 53.0744 154.633 51.1049C157.199 45.0409 155.078 37.2135 149.573 32.4683C144.627 28.1676 137.229 26.4186 129.775 27.6515C122.048 28.9417 115.64 33.3858 113.059 39.2779C111.596 42.8466 111.596 46.848 113.059 50.4168C113.589 51.8212 114.395 53.1053 115.429 54.1935C116.463 55.2817 117.705 56.1521 119.08 56.7533C120.606 57.4445 122.338 57.5315 123.926 56.997C124.607 56.7357 125.185 56.2604 125.572 55.6426C125.96 55.0247 126.137 54.2977 126.076 53.5708C125.997 53.2278 125.837 52.9086 125.61 52.6394C125.384 52.3702 125.096 52.1588 124.772 52.0225C124.548 51.9155 124.303 51.8601 124.055 51.8601C123.807 51.8601 123.562 51.9155 123.338 52.0225C123.097 52.1559 122.814 52.1917 122.547 52.1223C122.28 52.0529 122.05 51.8838 121.904 51.6497C121.767 51.4093 121.73 51.125 121.799 50.8571C121.869 50.5893 122.04 50.3593 122.277 50.2161C122.805 49.9146 123.398 49.7465 124.005 49.7265C124.612 49.7065 125.215 49.8352 125.761 50.1014C126.399 50.3825 126.962 50.8111 127.403 51.3519C127.845 51.8926 128.151 52.5302 128.298 53.2124C128.439 54.414 128.177 55.6283 127.555 56.6657C126.932 57.7031 125.984 58.5052 124.858 58.9467C122.746 59.7223 120.415 59.6399 118.363 58.7173C116.726 58.0066 115.247 56.9743 114.016 55.6814C112.785 54.3885 111.826 52.8615 111.196 51.191C109.526 47.082 109.552 42.479 111.267 38.389C114.134 31.8519 121.159 26.9203 129.603 25.4868C137.674 24.1535 145.731 26.1319 151.107 30.791C157.3 36.1096 159.708 44.9692 156.741 51.8648C155.769 54.1657 154.248 56.1934 152.311 57.7704C150.374 59.3474 148.08 60.4256 145.63 60.9107C144.871 61.0741 144.098 61.1653 143.322 61.1831Z" fill="#975237"/>
<path d="M213.037 56.3661C212.203 56.3627 211.373 56.242 210.572 56.0077C207.518 55.1476 204.149 52.7536 200.895 50.4312C198.804 48.7317 196.482 47.3368 193.999 46.2881C190.028 45.2272 186.272 46.6321 182.287 48.123C178.302 49.6139 174.073 51.2053 169.385 50.2304C162.489 48.7968 159.02 44.0516 155.651 39.4355C151.823 34.1742 147.852 28.7266 138.52 27.6371C138.236 27.6029 137.978 27.4575 137.802 27.233C137.626 27.0085 137.546 26.7233 137.581 26.44C137.615 26.1568 137.76 25.8987 137.985 25.7226C138.209 25.5465 138.494 25.4668 138.778 25.5011C149.042 26.7053 153.472 32.798 157.414 38.1739C160.683 42.6467 163.765 46.8758 169.844 48.1374C173.915 48.9688 177.642 47.5783 181.57 46.116C185.498 44.6538 189.942 42.9765 194.587 44.2093C196.695 44.7828 199.347 46.6751 202.171 48.6821C204.995 50.6892 208.493 53.1836 211.188 53.9434C211.852 54.1779 212.557 54.2698 213.259 54.213C213.961 54.1561 214.642 53.9519 215.26 53.6137C215.536 53.3832 215.753 53.0898 215.893 52.758C216.033 52.4263 216.091 52.0658 216.062 51.707C216.062 51.4218 216.176 51.1484 216.377 50.9468C216.579 50.7451 216.852 50.6318 217.138 50.6318C217.423 50.6318 217.696 50.7451 217.898 50.9468C218.099 51.1484 218.213 51.4218 218.213 51.707C218.249 52.4009 218.117 53.0934 217.827 53.7251C217.538 54.3567 217.099 54.9088 216.55 55.334C215.523 56.0526 214.29 56.4151 213.037 56.3661Z" fill="#975237"/>
<path d="M174.015 50.4886H173.47C173.188 50.4737 172.922 50.348 172.732 50.1387C172.541 49.9293 172.441 49.6533 172.453 49.3704C172.458 49.2285 172.492 49.0892 172.552 48.9606C172.612 48.832 172.698 48.7168 172.804 48.6219C172.909 48.5269 173.033 48.4542 173.167 48.4079C173.301 48.3617 173.443 48.3428 173.585 48.3525C174.991 48.4226 176.394 48.1857 177.699 47.6584C179.004 47.1311 180.178 46.326 181.14 45.299C181.823 44.1099 182.243 42.7882 182.371 41.4231C182.5 40.058 182.334 38.6812 181.886 37.3856C181.43 36.3109 180.688 35.3824 179.739 34.7021C178.791 34.0218 177.674 33.6159 176.51 33.5292C175.514 33.5193 174.534 33.7726 173.668 34.2635C172.802 34.7544 172.081 35.4655 171.578 36.3247C171.17 36.9678 170.954 37.7136 170.954 38.4751C170.954 39.2366 171.17 39.9825 171.578 40.6255C171.789 40.9564 172.066 41.2404 172.392 41.4599C172.717 41.6794 173.084 41.8296 173.47 41.9014C173.847 41.9864 174.236 41.9946 174.615 41.9256C174.995 41.8567 175.356 41.7119 175.678 41.5C175.924 41.261 176.116 40.9725 176.242 40.6538C176.368 40.335 176.425 39.9931 176.409 39.6507C176.409 39.407 176.295 39.3783 176.194 39.3496C176.056 39.3085 175.927 39.2398 175.815 39.1477C175.704 39.0556 175.612 38.942 175.545 38.8136C175.479 38.6853 175.439 38.5448 175.428 38.4006C175.417 38.2564 175.435 38.1114 175.481 37.9744C175.528 37.8374 175.601 37.7112 175.697 37.6033C175.794 37.4953 175.911 37.408 176.041 37.3463C176.172 37.2846 176.314 37.2499 176.459 37.2443C176.603 37.2388 176.747 37.2625 176.882 37.3139C177.326 37.4614 177.719 37.7327 178.013 38.096C178.308 38.4592 178.493 38.8992 178.545 39.3639C178.609 40.099 178.492 40.8385 178.205 41.5181C177.917 42.1976 177.468 42.7968 176.897 43.2633C176.339 43.6436 175.709 43.9058 175.045 44.034C174.382 44.1622 173.7 44.1536 173.04 44.0087C172.37 43.8782 171.733 43.6127 171.169 43.2282C170.605 42.8438 170.124 42.3484 169.757 41.7723C169.132 40.7996 168.794 39.6704 168.781 38.5141C168.768 37.3579 169.082 36.2214 169.686 35.2352C170.383 34.0319 171.391 33.0379 172.604 32.3571C173.817 31.6762 175.191 31.3334 176.581 31.3645C178.154 31.4673 179.667 32.0058 180.95 32.9199C182.234 33.8339 183.238 35.0874 183.85 36.5398C184.588 38.1114 184.897 39.8507 184.744 41.5805C184.592 43.3104 183.983 44.9687 182.98 46.3866C181.978 47.8045 180.617 48.9312 179.037 49.6518C177.457 50.3724 175.714 50.6611 173.987 50.4886H174.015Z" fill="#975237"/>
<path d="M193.139 58.3733C192.929 58.3875 192.718 58.3875 192.508 58.3733C191.406 58.2756 190.381 57.7633 189.641 56.9397C189.218 56.4682 188.953 55.8768 188.881 55.2476C188.809 54.6183 188.934 53.9822 189.24 53.4274C189.383 53.1906 189.613 53.019 189.881 52.9494C190.149 52.8798 190.433 52.9175 190.673 53.0547C190.908 53.2003 191.077 53.4303 191.146 53.6971C191.215 53.9639 191.18 54.2471 191.046 54.4882C190.977 54.658 190.958 54.8441 190.991 55.0244C191.024 55.2048 191.108 55.3719 191.233 55.5061C191.617 55.8886 192.125 56.1222 192.666 56.1656C193.492 56.2274 194.319 56.0492 195.046 55.6524C195.774 55.2557 196.371 54.6573 196.766 53.9292C197.22 53.1475 197.454 52.2571 197.441 51.3531C197.428 50.4492 197.17 49.5656 196.695 48.7969C196.16 47.9195 195.408 47.1946 194.511 46.6924C193.615 46.1902 192.604 45.9275 191.577 45.9298C191.291 45.9298 191.018 45.8165 190.816 45.6149C190.615 45.4132 190.501 45.1397 190.501 44.8546C190.501 44.5694 190.615 44.2959 190.816 44.0943C191.018 43.8927 191.291 43.7794 191.577 43.7794C192.978 43.7794 194.355 44.1409 195.576 44.829C196.796 45.5171 197.819 46.5086 198.544 47.7074C199.209 48.7987 199.571 50.048 199.591 51.3259C199.611 52.6039 199.289 53.864 198.659 54.9757C198.114 55.9739 197.319 56.8126 196.351 57.4085C195.383 58.0045 194.276 58.3371 193.139 58.3733Z" fill="#975237"/>
<path d="M109.088 32.3823C108.923 32.3818 108.76 32.3442 108.611 32.2723C108.462 32.2003 108.331 32.0958 108.228 31.9665C103.612 25.8308 96.1716 21.5731 87.312 19.9818C87.0869 19.9433 86.8802 19.8332 86.7227 19.6679C86.5651 19.5026 86.4651 19.2909 86.4375 19.0643C86.4047 18.8399 86.4457 18.6109 86.5543 18.4118C86.6629 18.2127 86.8332 18.0543 87.0396 17.9604C91.3655 15.9605 96.2554 15.5395 100.859 16.7705C99.2288 14.8486 97.2366 13.2656 94.996 12.1113L94.3222 11.6956C94.114 11.5686 93.9552 11.3745 93.8718 11.1452C93.7885 10.916 93.7855 10.6652 93.8635 10.434C93.9454 10.2054 94.1013 10.0107 94.3065 9.88088C94.5117 9.75101 94.7544 9.69344 94.996 9.71725C96.0139 9.81761 97.0461 9.81762 98.0639 9.81762C100.167 9.67435 102.276 9.99241 104.243 10.7495C104.735 7.31223 106.103 4.05912 108.214 1.30211C108.318 1.17068 108.451 1.06451 108.603 0.991572C108.754 0.91863 108.92 0.880798 109.088 0.880798C109.256 0.880798 109.422 0.91863 109.574 0.991572C109.725 1.06451 109.858 1.17068 109.963 1.30211C112.078 4.05797 113.451 7.31104 113.948 10.7495C115.915 9.99241 118.024 9.67435 120.127 9.81762C121.13 9.81762 122.177 9.81761 123.195 9.71725C123.433 9.69926 123.671 9.76155 123.871 9.89418C124.07 10.0268 124.22 10.2222 124.296 10.4494C124.371 10.6767 124.369 10.9226 124.289 11.1484C124.209 11.3741 124.056 11.5667 123.854 11.6956L123.18 12.1113C120.94 13.2656 118.948 14.8486 117.317 16.7705C121.926 15.5397 126.82 15.9607 131.151 17.9604C131.355 18.0579 131.522 18.217 131.63 18.4151C131.738 18.6132 131.781 18.8404 131.753 19.0643C131.719 19.2885 131.617 19.4969 131.461 19.661C131.304 19.8252 131.101 19.9372 130.879 19.9818C122.005 21.5731 114.579 25.8308 109.948 31.9665C109.846 32.0966 109.715 32.2016 109.566 32.2737C109.417 32.3457 109.254 32.3829 109.088 32.3823ZM91.3834 18.6915C98.2621 20.423 104.443 24.2264 109.088 29.5867C113.736 24.2292 119.916 20.4264 126.793 18.6915C123.023 17.7984 119.064 18.1505 115.511 19.695C115.317 19.7795 115.104 19.8069 114.896 19.7739C114.687 19.7409 114.493 19.6488 114.335 19.5087C114.179 19.3647 114.069 19.177 114.02 18.9699C113.972 18.7629 113.986 18.546 114.063 18.3475C115.1 15.7026 116.966 13.4646 119.381 11.968C117.36 11.742 115.324 12.2508 113.647 13.4016C113.491 13.5319 113.3 13.6151 113.099 13.6415C112.897 13.668 112.691 13.6366 112.507 13.551C112.322 13.4654 112.165 13.3291 112.055 13.158C111.945 12.9869 111.885 12.788 111.884 12.5844C111.793 9.44039 110.797 6.38924 109.017 3.79653C107.242 6.39247 106.247 9.44165 106.149 12.5844C106.149 12.7866 106.09 12.9845 105.981 13.1547C105.872 13.3248 105.717 13.4602 105.533 13.5449C105.347 13.6293 105.142 13.6607 104.939 13.6354C104.737 13.6101 104.545 13.5291 104.386 13.4016C102.709 12.2496 100.673 11.7407 98.6517 11.968C101.063 13.4685 102.928 15.7053 103.97 18.3475C104.04 18.5441 104.05 18.7566 104.001 18.9592C103.952 19.1618 103.845 19.3457 103.693 19.4886C103.541 19.6314 103.351 19.7269 103.145 19.7636C102.94 19.8002 102.729 19.7764 102.537 19.695C99.0213 18.1787 95.113 17.827 91.3834 18.6915Z" fill="#975237"/>
</svg>
