<svg width="296" height="241" viewBox="0 0 296 241" fill="none" xmlns="http://www.w3.org/2000/svg">
<path fill-rule="evenodd" clip-rule="evenodd" d="M67.1389 33.874C66.7348 33.2584 66.1999 32.7397 65.5722 32.3547C63.9182 35.7039 61.5834 38.6711 58.7172 41.0665C55.851 43.4618 52.5163 45.2326 48.9266 46.2655C40.2762 48.9528 32.7843 44.167 31.0846 38.6692C29.4324 33.3517 32.7938 27.7494 35.8324 26.2681C38.8709 24.7868 38.0923 26.4865 37.7315 27.6829C36.687 30.1992 40.2478 34.0164 44.2359 32.782C48.224 31.5476 49.7812 28.3286 48.4423 23.9987C47.151 19.8492 41.7291 18.2444 37.57 19.5358C33.2496 20.8747 25.2829 28.0817 28.8437 39.5617C31.4739 48.0412 42.973 51.0323 50.1231 48.8104C56.6085 46.7973 62.6001 42.0306 67.2149 33.8645L67.1389 33.874Z" fill="white" stroke="#975237" stroke-width="0.52"/>
<path d="M71.0036 70.7924C66.9965 65.4274 65.3063 60.8221 63.8155 54.3462C62.2868 47.5 63.3408 35.0704 68.4588 29.658C70.4149 27.588 70.7377 29.7529 70.7377 29.7529C56.4945 54.1278 75.7988 72.1218 77.3846 73.9734C83.5946 81.2374 100.686 87.6658 109.052 79.9935C110.742 85.3205 104.124 88.435 102.633 86.5454C107.989 93.3631 96.7364 102.118 92.4919 92.3186C93.9827 95.0913 96.2141 94.9963 97.3536 93.1067C98.8349 90.6189 96.0432 88.8243 93.8972 87.7038C89.6337 85.4914 85.5887 84.0481 81.5056 81.3798C77.9258 79.0344 73.6434 74.2867 71.0036 70.7924Z" fill="white" stroke="#975237" stroke-width="0.52"/>
<path fill-rule="evenodd" clip-rule="evenodd" d="M85.7121 15.6997C85.1899 16.7157 81.8475 19.4219 80.4801 20.5519C78.3836 22.2734 76.6173 24.3615 75.2671 26.7144C65.1924 44.4899 72.9502 66.1301 91.8462 70.7449C108.178 74.7235 117.74 64.0981 120 55.0394C122.26 45.9807 116.307 33.9215 107.295 31.6615C98.2841 29.4016 89.9661 34.6431 88.5418 40.4544C85.9875 50.8994 94.1726 54.802 97.7334 51.9914C99.5565 50.6905 97.572 49.8454 96.575 49.57C95.5779 49.2947 94.0966 47.0537 94.9322 43.7493C95.7678 40.4449 99.8224 39.4004 102.832 40.122C105.843 40.8437 108.302 45.0787 107.286 49.3991C106.27 53.7196 99.9363 56.9385 93.7263 55.3813C87.5163 53.824 85.2279 47.1582 87.0795 40.0461C88.9311 32.934 97.7334 27.531 107.751 29.9619C117.769 32.3927 124.691 46.427 122.27 56.3498C121.381 59.9717 119.706 63.3536 117.363 66.2551C115.02 69.1565 112.066 71.5065 108.713 73.138C105.359 74.7695 101.688 75.6424 97.9585 75.6949C94.2295 75.7474 90.5346 74.9781 87.1364 73.4416C79.0843 69.7954 72.1146 62.7687 69.1615 54.4507C67.7731 50.5742 67.1827 46.4571 67.4258 42.3467C67.6689 38.2362 68.7406 34.2174 70.5763 30.5316C72.9502 25.537 79.5591 16.2884 85.6741 15.3388C85.6931 15.4148 85.7786 15.5762 85.7121 15.6997Z" stroke="#975237" stroke-width="1.77"/>
<path fill-rule="evenodd" clip-rule="evenodd" d="M85.7121 15.6997C85.1899 16.7157 81.8475 19.4219 80.4801 20.5519C78.3836 22.2734 76.6173 24.3615 75.2671 26.7144C65.1924 44.4899 72.9502 66.1301 91.8462 70.7449C108.178 74.7235 117.74 64.0981 120 55.0394C122.26 45.9807 116.307 33.9215 107.295 31.6615C98.2841 29.4016 89.9661 34.6431 88.5418 40.4544C85.9875 50.8994 94.1726 54.802 97.7334 51.9914C99.5565 50.6905 97.572 49.8454 96.575 49.57C95.5779 49.2947 94.0966 47.0537 94.9322 43.7493C95.7678 40.4449 99.8224 39.4004 102.832 40.122C105.843 40.8437 108.302 45.0787 107.286 49.3991C106.27 53.7196 99.9363 56.9385 93.7263 55.3813C87.5163 53.824 85.2279 47.1582 87.0795 40.0461C88.9311 32.934 97.7334 27.531 107.751 29.9619C117.769 32.3927 124.691 46.427 122.27 56.3498C121.381 59.9717 119.706 63.3536 117.363 66.2551C115.02 69.1565 112.066 71.5065 108.713 73.138C105.359 74.7695 101.688 75.6424 97.9585 75.6949C94.2295 75.7474 90.5346 74.9781 87.1364 73.4416C79.0843 69.7954 72.1146 62.7687 69.1615 54.4507C67.7731 50.5742 67.1827 46.4571 67.4258 42.3466C67.6689 38.2362 68.7406 34.2174 70.5763 30.5316C72.9502 25.537 79.5591 16.2884 85.6741 15.3388C85.6931 15.4148 85.7786 15.5762 85.7121 15.6997Z" fill="#975237" stroke="white" stroke-width="1.18"/>
<path fill-rule="evenodd" clip-rule="evenodd" d="M14.9233 90.7613C25.3684 91.6349 35.519 82.8896 40.1623 68.8268C41.6246 64.4304 40.3332 57.2138 42.8685 53.3112C43.5142 52.3141 43.9985 52.7604 44.0365 53.7954C44.0524 54.5968 44.3721 55.3623 44.9309 55.9369C45.4897 56.5116 46.2459 56.8526 47.0465 56.8909C49.3349 56.9669 52.4685 53.1497 51.9177 47.9747C51.367 42.7997 53.513 34.9849 58.4601 29.43C63.4072 23.8752 68.9051 18.6527 72.9787 20.2194C75.0202 21.055 73.7288 23.0111 71.8867 24.8627C63.4452 33.703 56.1717 46.218 54.434 56.872C52.5349 68.352 59.5331 86.118 50.7308 95.4996C54.7284 95.2622 58.4506 92.9832 59.1438 89.261C60.1883 101.339 66.7402 110.388 70.5383 114.899C76.2356 121.679 86.7946 128.136 95.7868 129.455C92.8432 129.028 91.7228 120.615 92.8242 118.697C96.0147 127.366 109.755 134.592 124.682 121.812C130.009 117.244 136.75 109.107 129.695 100.437C128.185 98.5381 126.543 100.665 128.214 102.241C129.885 103.818 130.113 107.122 129.562 110.369C128.442 116.399 116.326 122.818 100.743 118.07C86.8136 113.826 74.5929 103.827 66.8731 91.5494C51.7658 67.6398 59.8559 30.6075 85.3038 16.6016C87.9246 15.1583 84.1549 10.6195 82.5691 10.1542C78.4386 8.92929 69.7502 15.3482 66.3413 17.2853C56.9399 22.6023 48.5294 29.506 41.4822 37.6911C34.0092 46.4744 30.0212 60.6037 24.998 70.9822C20.7061 79.8415 13.2806 92.1192 2 83.4783C4.96259 88.2735 10.4035 90.3815 14.9233 90.7613Z" stroke="#975237" stroke-width="2.62"/>
<path fill-rule="evenodd" clip-rule="evenodd" d="M14.9233 90.7613C25.3684 91.6349 35.519 82.8896 40.1623 68.8268C41.6246 64.4304 40.3332 57.2138 42.8685 53.3112C43.5142 52.3141 43.9985 52.7604 44.0365 53.7954C44.0524 54.5968 44.3721 55.3623 44.9309 55.9369C45.4897 56.5116 46.2459 56.8526 47.0465 56.8909C49.3349 56.9669 52.4685 53.1497 51.9177 47.9747C51.367 42.7997 53.513 34.9849 58.4601 29.43C63.4072 23.8752 68.9051 18.6527 72.9787 20.2194C75.0202 21.055 73.7288 23.0111 71.8867 24.8627C63.4452 33.703 56.1717 46.218 54.434 56.872C52.5349 68.352 59.5331 86.118 50.7308 95.4996C54.7284 95.2622 58.4506 92.9832 59.1438 89.261C60.1883 101.339 66.7402 110.388 70.5383 114.899C76.2356 121.679 86.7946 128.136 95.7868 129.455C92.8432 129.028 91.7228 120.615 92.8242 118.697C96.0147 127.366 109.755 134.592 124.682 121.812C130.009 117.244 136.75 109.107 129.695 100.437C128.185 98.5381 126.543 100.665 128.214 102.241C129.885 103.818 130.113 107.122 129.562 110.369C128.442 116.399 116.326 122.818 100.743 118.07C86.8136 113.826 74.5929 103.827 66.8731 91.5494C51.7658 67.6398 59.8559 30.6075 85.3038 16.6016C87.9246 15.1583 84.1549 10.6195 82.5691 10.1542C78.4386 8.92929 69.7502 15.3482 66.3413 17.2853C56.9399 22.6023 48.5294 29.506 41.4822 37.6911C34.0092 46.4744 30.0212 60.6037 24.998 70.9822C20.7061 79.8415 13.2806 92.1192 2 83.4783C4.96259 88.2735 10.4035 90.3815 14.9233 90.7613Z" fill="#975237" stroke="white" stroke-width="1.57"/>
<path d="M131.262 47.5664C153.159 80.5442 116.136 115.526 84.0599 97.8925C61.2708 85.3584 55.2317 57.2803 68.9526 32.3737L69.1426 32.1078C53.418 57.1854 59.8275 86.4504 83.5472 99.5257C116.971 117.937 155.352 81.7502 131.661 47.538L131.262 47.5664Z" fill="#975237"/>
<path fill-rule="evenodd" clip-rule="evenodd" d="M172.612 211.751C162.307 210.292 155.812 205.796 151.71 194.645C148.893 187.04 149.681 174.21 160.935 171.057C166.584 169.466 173.138 171.816 174.495 177.508C174.827 178.551 174.943 179.65 174.835 180.739C174.728 181.827 174.398 182.882 173.868 183.839C173.338 184.796 172.617 185.634 171.751 186.303C170.885 186.971 169.892 187.455 168.832 187.726C168.16 187.947 167.45 188.028 166.747 187.962C166.043 187.896 165.36 187.684 164.742 187.342C164.123 186.999 163.583 186.532 163.154 185.97C162.725 185.408 162.417 184.764 162.249 184.077C161.99 182.901 162.173 181.671 162.762 180.621C163.352 179.572 164.307 178.775 165.445 178.384C168.058 177.654 171.109 179.406 170.7 181.391C170.291 183.376 171.43 183.814 172.364 182.238C173.503 180.165 171.08 170.561 161.723 173.217C155.14 175.071 152.221 184.442 153.622 190.412C155.024 196.381 158.308 204.599 165.927 207.65C171.421 209.615 177.032 211.239 182.727 212.51C179.721 213.503 174.291 211.518 172.612 211.824V211.751Z" fill="#975237"/>
<path d="M178.67 52.506C194.842 64.7085 213 81.8153 222.794 99.1265C232.092 115.591 238.091 140.697 235.157 159.628C231.158 185.303 199.221 215.094 171.751 209.912C157.447 207.227 141.332 194.104 138.778 172.502C137.085 158.198 148.849 135.238 166.511 137.398L166.394 135.851C146.207 133.384 131.991 159.745 134.691 176.005C136.118 185.591 140.611 194.457 147.496 201.277C154.382 208.096 163.291 212.504 172.889 213.839C204.505 218.597 233.8 189.2 238.368 159.832C241.74 138.172 238.617 114.978 227.976 96.1343C216.78 76.3271 206.534 66.5768 188.026 52.6373L178.67 52.506Z" fill="#975237"/>
<path fill-rule="evenodd" clip-rule="evenodd" d="M133.655 164.46C130.079 145.382 158.468 122.014 178.451 138.186C176.29 134.187 173.371 130.888 169.138 130.217C173.269 126.903 178.144 121.649 178.889 116.219C179.633 110.789 176.976 101.112 169.722 108.06C161.081 100.878 149.214 114.38 159.622 122.335C160.256 122.222 160.885 122.076 161.504 121.897C153.71 115.124 162.526 106.469 169.182 112.322C177.268 119.445 167.927 126.495 162.38 128.524C147.04 134.245 130.984 142.872 132.823 162.781L133.655 164.46Z" fill="#975237"/>
<path fill-rule="evenodd" clip-rule="evenodd" d="M134.72 170.196C130.02 163.613 125.466 158.314 122.81 151.44C119.336 142.477 121.992 135.821 119 126.538C123.861 129.881 129.787 133.399 132.458 139.208C136.209 147.367 131.436 157.059 133.407 164.591C131.188 157.468 133.786 147.075 125.32 140.872C124.547 149.819 128.312 160.066 134.72 170.196Z" fill="#975237"/>
<path d="M234.894 155.512C231.391 188.441 186.114 184.836 185.369 154.403C185.004 139.033 204.578 128.888 217.072 139.675C221.626 143.616 223.874 151.892 219.276 156.884C211.438 165.408 199.834 152.899 207.672 147.995L207.512 147.528C198.754 153.191 211.613 166.255 220.123 157.001C225.115 151.571 222.648 142.828 217.715 138.566C204.155 126.889 184.727 137.106 184.318 153.556C183.516 186.587 232.384 190.704 235.522 156.154L234.894 155.512Z" fill="#975237"/>
<path fill-rule="evenodd" clip-rule="evenodd" d="M223.261 177.523C218.255 183.887 214.43 189.726 208.563 194.207C200.929 200.045 193.806 199.33 185.719 204.789C187.573 199.184 189.296 192.513 194.142 188.324C200.929 182.486 211.57 184.34 218.255 180.34C212.037 184.456 201.308 184.88 197.732 194.732C206.534 192.981 215.321 186.514 223.261 177.523Z" fill="#975237"/>
<path fill-rule="evenodd" clip-rule="evenodd" d="M203.118 212.861C203.213 212.074 203.394 211.301 203.659 210.555C195.251 214.116 183.136 218.32 170.364 217.079C157.593 215.838 152.645 211.036 149.594 208.073C146.543 205.11 142.296 205.154 141.274 208.19C140.252 211.226 142.515 214.481 155.199 218.597C170.175 223.385 191.587 218.188 203.118 212.861Z" fill="#975237"/>
<path fill-rule="evenodd" clip-rule="evenodd" d="M216.021 196.104C216.021 204.191 216.737 211.153 214.941 218.305C212.62 227.632 206.607 231.529 203.702 240.842C201.659 235.295 198.842 229.004 200.009 222.713C201.644 213.955 211.132 208.73 213.861 201.432C211.57 208.526 203.454 215.546 206.797 225.487C212.591 218.612 215.423 208.073 216.021 196.104Z" fill="#975237"/>
<path fill-rule="evenodd" clip-rule="evenodd" d="M178.305 56.5346C188.522 65.9784 197.907 73.3057 204.738 83.9172C213.628 97.7545 211.438 109.826 219.641 124.363C210.343 120.422 199.206 116.554 192.711 107.724C183.647 95.3461 188.332 77.4365 182.421 65.4821C188.595 76.6629 187.821 95.0104 204.125 102.484C202.374 87.216 192.536 71.3206 178.305 56.5346Z" fill="#975237"/>
<path fill-rule="evenodd" clip-rule="evenodd" d="M186.303 52.3893C187.646 52.8272 191.587 56.3594 193.222 57.7899C195.726 60.001 198.609 61.7416 201.732 62.9278C225.305 71.6856 250.075 58.0234 251.972 34.1585C253.621 13.534 238.835 4.01717 227.377 3.03922C215.919 2.06127 202.505 11.6365 201.469 23.0508C200.433 34.465 208.49 43.4855 215.817 44.1132C228.954 45.1641 232.15 34.4504 228.049 30.6846C226.107 28.7287 225.465 31.2976 225.334 32.5529C225.202 33.8082 222.75 36.0706 218.576 35.6911C214.401 35.3116 212.329 30.6116 212.62 26.802C212.912 22.9924 217.583 19.1973 223.013 19.5768C228.443 19.9563 233.61 27.0355 232.938 34.8883C232.267 42.7411 224.619 46.8281 215.613 46.0107C206.607 45.1933 198.331 35.516 199.323 22.861C200.316 10.206 216.007 -0.930931 228.516 0.061615C233.089 0.429672 237.525 1.80004 241.508 4.07546C245.492 6.35088 248.926 9.47551 251.566 13.2274C254.206 16.9794 255.988 21.2666 256.785 25.7846C257.581 30.3027 257.373 34.9407 256.176 39.3694C253.275 50.1395 246.241 59.3296 236.602 64.942C232.159 67.3754 227.271 68.8881 222.23 69.3897C217.189 69.8913 212.099 69.3714 207.264 67.8613C200.739 65.9492 188.215 59.7312 185.792 52.506C185.968 52.506 186.143 52.3455 186.303 52.3893Z" fill="#975237"/>
<path fill-rule="evenodd" clip-rule="evenodd" d="M234.851 73.7727C241.828 72.4299 247.024 73.9333 252.133 80.2389C255.636 84.5302 257.971 92.996 251.359 97.5209C248.06 99.7979 243.302 99.7249 241.142 96.3386C240.707 95.736 240.4 95.0515 240.238 94.3267C240.076 93.6018 240.063 92.8516 240.199 92.1215C240.336 91.3914 240.619 90.6966 241.032 90.0792C241.445 89.4618 241.979 88.9346 242.601 88.5295C242.987 88.24 243.429 88.033 243.898 87.9214C244.368 87.8099 244.855 87.7961 245.33 87.881C245.806 87.9659 246.258 88.1476 246.66 88.4148C247.062 88.6821 247.404 89.0292 247.666 89.4345C248.086 90.139 248.234 90.9722 248.084 91.7782C247.933 92.5841 247.494 93.3077 246.849 93.8134C245.316 94.8643 242.966 94.3972 242.791 93.0252C242.616 91.6531 241.784 91.5656 241.521 92.85C241.244 94.4264 244.922 100.148 250.396 96.3386C254.234 93.682 254.074 86.9823 251.855 83.4355C249.637 79.8886 245.696 75.2907 240.105 74.9842C236.117 74.9272 232.13 75.1173 228.166 75.5535C229.888 74.2398 233.844 74.342 234.865 73.7581L234.851 73.7727Z" fill="#975237"/>
<path fill-rule="evenodd" clip-rule="evenodd" d="M203.877 66.9418C223.232 82.7641 267.211 65.0734 261.211 32.5237C264.408 37.4281 266.393 42.7411 264.481 47.952C270.772 45.3393 279.734 43.0768 286.375 45.5874C293.017 48.098 302.285 57.0893 289.937 60.9865C292.725 75.2032 270.13 80.2681 267.561 63.5846C268.083 62.9338 268.644 62.3148 269.239 61.7309C272.057 74.7216 287.295 70.0945 284.784 58.9722C281.734 45.4268 267.999 51.674 262.277 56.6368C246.396 70.5762 226.648 83.3625 205.352 68.9122L203.877 66.9418Z" fill="#975237"/>
<path fill-rule="evenodd" clip-rule="evenodd" d="M177.268 50.6669C184.464 54.5203 190.405 58.3737 197.601 60.1253C207.03 62.4169 213.336 58.8846 223.013 60.6507C219.014 56.2718 214.722 50.7544 208.548 48.8423C199.907 46.1858 190.828 52.2287 183.034 51.2508C190.463 52.5352 200.549 48.565 207.848 56.2135C198.988 58.1694 188.23 55.761 177.268 50.6669Z" fill="#975237"/>
<path fill-rule="evenodd" clip-rule="evenodd" d="M174.51 53.1628C172.744 61.0302 170.627 67.6715 170.861 75.0573C171.167 84.6324 176.188 89.6535 177.064 99.3892C180.217 94.4265 184.289 88.8945 184.479 82.5159C184.756 73.583 176.597 66.46 175.473 58.8554C176.217 66.2557 182.64 74.7945 177.283 83.7712C173.079 75.86 172.554 64.942 174.51 53.1628Z" fill="#975237"/>
<path fill-rule="evenodd" clip-rule="evenodd" d="M173.634 52.6373C168.058 55.6295 163.052 57.7606 158.804 61.6724C153.301 66.7519 152.863 72.3277 147.579 77.8013C152.134 77.1298 157.49 76.7066 161.373 73.5538C166.803 69.1749 166.803 60.6945 170.773 56.0383C166.759 60.2712 164.934 68.4451 156.936 69.8755C159.475 63.3948 165.635 57.5125 173.634 52.6373Z" fill="#975237"/>
</svg>
