<svg width="293" height="111" viewBox="0 0 293 111" fill="none" xmlns="http://www.w3.org/2000/svg">
<path fill-rule="evenodd" clip-rule="evenodd" d="M169.645 47.7077C176.438 46.891 182.92 52.9839 187.898 56.7822C181.416 56.86 175.777 63.264 169.062 64.1585C162.061 65.0271 157.395 59.0897 151.004 59.1934C156.435 56.2896 163.734 48.4078 169.645 47.7077Z" stroke="#975237" stroke-width="0.71" stroke-dasharray="1.42 1.42"/>
<path fill-rule="evenodd" clip-rule="evenodd" d="M169.892 44.8557C178.966 43.7668 187.678 51.9338 194.354 57.0026C185.642 57.1192 178.098 65.766 169.101 66.8938C159.715 68.0605 153.545 60.1009 144.911 60.2435C152.17 56.4192 161.958 45.8539 169.892 44.8557Z" stroke="#975237" stroke-width="0.95" stroke-dasharray="1.9 1.9"/>
<path d="M65.3923 65.04C29.2628 55.8229 9.76559 70.3161 7.67845 73.6218C5.59132 76.9275 8.5859 76.6294 8.5859 76.6294C30.1702 52.5042 68.711 70.1476 71.7185 71.6384C82.6468 76.9405 102.001 101.999 86.6266 110.309C94.3399 111.138 100.122 101.234 96.6086 94.4802C98.1383 95.1802 118.789 102.634 121.408 96.4507C117.519 96.1655 110.868 92.5616 94.5992 81.5037C76.515 68.3197 68.0757 66.2326 65.3923 65.04Z" fill="#975237"/>
<path d="M222.329 58.2731C218.116 55.2785 211.803 56.1989 211.206 58.2731C229.835 58.2731 225.389 73.8293 224.481 77.1869C219.127 95.5433 185.15 98.3564 180.638 98.3694C146.064 97.8638 119.839 80.8037 115.937 78.6907C93.899 65.2345 71.0702 57.7804 67.1552 56.8859C42.1873 50.6505 20.253 59.725 17.8936 61.5399C15.5342 63.3548 16.7009 63.9511 16.7009 63.9511C24.5707 60.0251 33.1598 57.7488 41.941 57.2619C66.0014 54.4877 98.514 71.8459 102.442 74.5294C130.158 90.3838 147.309 95.1544 151.522 96.3471C202.676 109.129 222.199 87.6096 224.559 83.5001C231.857 70.6662 226.555 61.2676 222.329 58.2731Z" fill="#975237"/>
<path fill-rule="evenodd" clip-rule="evenodd" d="M178.668 54.8377C187.742 59.6861 198.891 59.6991 208.367 56.1341C210.156 45.2576 200.187 31.5033 186.329 33.383C179.433 34.3034 161.206 39.2555 155.217 28.4957C156.358 38.5814 170.073 50.2616 178.668 54.8377Z" fill="#975237"/>
<path fill-rule="evenodd" clip-rule="evenodd" d="M209.353 30.9716C209.716 19.9915 215.29 12.1485 221.811 3.96851C218.272 16.3746 232.778 26.0066 231.352 38.1794C230.172 48.1873 221.059 53.4245 212.49 56.7173C214.823 48.2132 209.067 39.748 209.353 30.9716Z" fill="#975237"/>
<path fill-rule="evenodd" clip-rule="evenodd" d="M187.937 63.9122C193.628 58.5194 203.778 59.6731 210.96 59.7509C205.049 64.2752 204.284 74.0886 198.671 79.4685C192.811 85.0688 184.489 82.7742 178.629 87.2466C181.65 80.8945 182.959 68.618 187.937 63.9122Z" fill="#975237"/>
<path fill-rule="evenodd" clip-rule="evenodd" d="M186.848 45.452C178.668 40.2666 175.181 32.4885 171.888 23.9196C179.744 32.1644 193.524 25.4233 202.158 31.9569C209.236 37.3239 209.145 46.5928 207.823 54.5654C202.391 49.004 193.394 49.6004 186.848 45.452Z" stroke="#975237" stroke-width="1.34"/>
<path fill-rule="evenodd" clip-rule="evenodd" d="M179.264 59.7897C185.629 56.2247 194.522 59.5694 200.978 61.2805C194.613 64.0159 191.683 72.6885 185.422 76.2535C178.862 79.987 171.875 76.0201 165.562 78.7425C169.723 73.6737 173.703 62.9139 179.264 59.7897Z" fill="white" stroke="#975237" stroke-width="0.76"/>
<path fill-rule="evenodd" clip-rule="evenodd" d="M213.916 22.001C216.509 30.4014 210.208 39.9555 206.54 47.0985C204.984 38.9184 195.559 33.2404 192.993 24.9307C190.322 16.284 196.791 9.10223 195.222 1C200.084 7.2614 211.686 14.6765 213.916 22.001Z" stroke="#975237" stroke-width="0.91"/>
<path fill-rule="evenodd" clip-rule="evenodd" d="M235.876 30.2846C233.439 37.1682 224.533 40.4869 218.544 43.4555C221.538 37.2071 218.038 28.7419 220.423 21.923C222.912 14.806 230.794 13.1985 233.737 7.00195C233.918 13.5615 238.015 24.2824 235.876 30.2846Z" stroke="#975237" stroke-width="0.76" stroke-dasharray="1.52 1.52"/>
<path fill-rule="evenodd" clip-rule="evenodd" d="M241.489 73.3755C241.919 75.2831 241.968 77.2568 241.632 79.1832C241.334 81.6592 239.934 84.3686 239.039 86.6243C238.296 88.5707 237.838 90.614 237.678 92.6912C237.519 95.1298 237.965 97.5699 238.974 99.7953C237.409 98.5374 235.928 97.1776 234.541 95.7247C233.367 94.3443 232.516 92.7188 232.052 90.9671C231.417 88.5429 232.324 84.0445 232.933 81.6203C234.554 75.1385 234.23 70.8087 232.402 64.2362C231.646 61.5241 230.255 59.0311 228.344 56.9636C231.533 59.3489 235.085 61.825 237.082 64.4307C239.271 66.9998 240.786 70.074 241.489 73.3755V73.3755Z" stroke="#975237" stroke-width="0.69" stroke-dasharray="0.98 0.98"/>
<path fill-rule="evenodd" clip-rule="evenodd" d="M244.289 76.3701C244.056 86.3521 233.919 93.8969 243.628 103.723C239.026 101.779 233.581 99.2379 230.742 94.934C227.605 90.1893 229.044 86.1188 230.639 81.4519C234.23 70.8477 229.848 62.7584 224.559 53.5931C229.676 55.6047 234.31 58.6751 238.158 62.6028C241.826 66.7512 244.393 70.4588 244.289 76.3701Z" stroke="#975237" stroke-width="0.69" stroke-dasharray="0.98 0.98"/>
<path fill-rule="evenodd" clip-rule="evenodd" d="M255.309 34.3942C257.668 34.2981 260.024 34.6636 262.244 35.4702C265.109 36.3517 268.013 38.5814 270.515 40.15C272.676 41.4384 275.006 42.42 277.437 43.0668C280.288 43.7857 283.272 43.7857 286.123 43.0668C284.297 44.6591 282.37 46.1314 280.354 47.4744C278.46 48.5657 276.349 49.2253 274.171 49.406C271.163 49.6523 266.004 47.6041 263.268 46.3595C255.918 43.0538 250.694 42.5353 242.526 43.2872C239.144 43.5963 235.886 44.7121 233.024 46.541C236.537 43.2612 240.232 39.5796 243.745 37.7647C247.686 35.7813 251.147 34.4071 255.309 34.3942Z" stroke="#975237" stroke-width="0.84" stroke-dasharray="1.19 1.19"/>
<path fill-rule="evenodd" clip-rule="evenodd" d="M259.431 31.7366C271.241 34.1479 278.034 47.7596 291.762 38.387C288.469 43.4168 284.282 49.3412 278.578 51.7913C272.265 54.5136 267.741 51.9209 262.542 49.043C250.719 42.5612 240.18 45.9836 228.163 50.3394C231.638 44.675 236.278 39.8142 241.775 36.0794C247.479 32.5663 252.444 30.3106 259.431 31.7366Z" stroke="#975237" stroke-width="0.84" stroke-dasharray="1.19 1.19"/>
<path d="M74.7649 52.7895C68.2737 50.8251 61.5534 49.7181 54.7751 49.4967C50.5607 49.1522 46.3209 49.2827 42.1356 49.8857C37.974 50.5802 33.8979 51.7143 29.9758 53.2691C29.4372 53.4969 28.928 53.7885 28.459 54.1377C28.1479 54.384 27.5775 55.2785 27.2534 55.4341C35.6538 52.7117 41.7467 50.5338 50.7434 50.7931C56.9466 50.8218 63.125 51.5789 69.1517 53.0488C79.8758 56.0819 90.1536 60.5147 99.7198 66.2327C105.839 69.7329 112.307 72.7923 119.528 71.1589C122.698 70.3761 125.643 68.8681 128.131 66.7535C130.619 64.6389 132.582 61.9755 133.866 58.9731C135.007 56.1341 136.083 51.6617 135.499 48.6023C134.918 45.1387 133.297 41.9336 130.852 39.4123C128.407 36.891 125.254 35.1725 121.81 34.4849C119.268 34.1153 116.675 34.4054 114.278 35.3276C104.14 39.2944 103.103 55.2267 114.913 57.5471C115.938 57.7729 116.999 57.7739 118.024 57.5501C119.049 57.3264 120.013 56.883 120.85 56.2508C122.506 55.1144 123.658 53.3817 124.065 51.4154C124.478 49.5862 124.291 47.673 123.534 45.9577C123.139 45.1389 122.546 44.4321 121.808 43.9021C121.069 43.3721 120.21 43.0359 119.308 42.9242C118.42 42.7418 117.497 42.8942 116.715 43.352C116.177 43.6493 115.715 44.0675 115.367 44.5737C115.018 45.0799 114.792 45.6602 114.706 46.2688C114.54 46.9645 114.628 47.6963 114.954 48.333C115.279 48.9697 115.821 49.4696 116.482 49.743C116.854 49.9012 117.235 50.0397 117.622 50.1579C117.626 49.7784 117.669 49.4004 117.752 49.0301C117.784 48.6659 117.889 48.312 118.061 47.9892C118.232 47.6663 118.467 47.381 118.75 47.1503C119.291 46.8492 119.928 46.7701 120.526 46.93C120.925 47.027 121.296 47.2175 121.607 47.4857C121.918 47.7539 122.161 48.0922 122.315 48.4726C122.758 49.2928 122.901 50.2421 122.717 51.1561C122.487 52.7899 121.655 54.2788 120.384 55.3303C119.639 55.9167 118.774 56.3302 117.85 56.5409C116.927 56.7517 115.968 56.7544 115.043 56.5489C112.545 56.0703 110.335 54.6323 108.885 52.5432C108.122 51.4997 107.591 50.3052 107.327 49.0398C107.063 47.7744 107.073 46.4672 107.355 45.2058C107.631 43.5149 108.292 41.9103 109.288 40.5163C110.284 39.1224 111.588 37.9768 113.098 37.1684C115.558 35.772 118.44 35.3116 121.213 35.872C130.288 37.6481 135.344 45.2188 133.555 54.2803C132.845 58.5051 130.686 62.3509 127.449 65.1567C125.268 67.0069 122.692 68.3324 119.919 69.0313C117.146 69.7302 114.249 69.7839 111.452 69.1884C105.19 67.892 100.135 64.8845 94.7158 61.7732C88.4136 58.0589 81.7234 55.0464 74.7649 52.7895Z" fill="#975237"/>
<path fill-rule="evenodd" clip-rule="evenodd" d="M30.8183 68.4624C22.379 68.5401 16.2602 72.6755 9.8562 77.5369C19.4492 75.0478 26.5792 86.3521 35.9648 85.4706C43.6652 84.7576 47.8524 77.848 50.5229 71.3273C43.9504 72.9737 37.5594 68.3975 30.8183 68.4624Z" fill="#975237"/>
<path fill-rule="evenodd" clip-rule="evenodd" d="M7.58764 60.9435C9.83033 65.4419 7.23762 71.444 5.85052 75.8387C4.17822 71.3662 -1.69429 69.0587 -3.94995 64.6122C-6.20562 60.1657 -3.3277 55.3044 -5 50.8838C-1.64244 53.9302 5.63014 57.0156 7.58764 60.9435Z" fill="#975237"/>
<path fill-rule="evenodd" clip-rule="evenodd" d="M19.903 51.8691C19.5659 56.886 14.2898 60.7491 10.8285 63.8474C11.6452 59.1287 7.74316 54.1766 8.04132 49.2115C8.36541 44.0261 13.2916 41.4334 14.0953 36.8054C15.4824 41.1223 20.2012 47.4485 19.903 51.8691Z" stroke="#975237" stroke-width="0.69" stroke-dasharray="1.05 1.05"/>
<path fill-rule="evenodd" clip-rule="evenodd" d="M21.8995 52.4265C21.4458 59.1546 14.3677 64.327 9.77857 68.4754C10.8805 62.1621 5.64318 55.5118 6.05801 48.8615C6.48581 41.9001 13.0843 38.4906 14.1602 32.2422C15.9751 38.0239 22.2884 46.541 21.8995 52.4265Z" stroke="#975237" stroke-width="0.69" stroke-dasharray="1.4 1.4"/>
<path fill-rule="evenodd" clip-rule="evenodd" d="M245.586 63.0826C239.895 62.3566 235.863 56.0693 232.622 51.9728C237.924 53.2691 243.836 49.1208 249.475 49.8208C255.36 50.5338 257.901 56.3026 263.152 57.599C258.148 58.7916 250.59 63.7178 245.586 63.0826Z" stroke="#975237" stroke-width="0.58" stroke-dasharray="1.19 1.19"/>
<path fill-rule="evenodd" clip-rule="evenodd" d="M130.742 80.9982C125.751 81.6075 120.967 77.1092 117.298 74.3609C122.082 74.2831 126.217 69.5255 131.156 68.9032C136.342 68.255 139.712 72.6108 144.444 72.5201C140.464 74.672 135.097 80.4797 130.742 80.9982Z" fill="#975237"/>
</svg>
