<svg width="114" height="289" viewBox="0 0 114 289" fill="none" xmlns="http://www.w3.org/2000/svg">
<path d="M65.5995 218.413C65.4695 216.343 64.1495 204.413 50.9495 181.483C48.3795 177.293 35.9495 159.483 34.0695 136.723C33.4111 127.059 36.5912 117.526 42.9195 110.193C46.4795 106.273 49.1595 103.353 53.9195 100.893C56.6937 99.5837 59.6688 98.752 62.7195 98.4326C64.8566 98.2395 67.0079 98.2663 69.1395 98.5126C68.7795 98.7626 68.2195 99.4626 66.5795 100.823C67.0767 101.627 67.454 102.499 67.6995 103.413C66.2295 102.853 62.0895 102.933 60.4295 103.153C49.8095 104.533 41.7595 114.543 38.7095 124.153C35.5995 133.963 36.5795 144.833 40.2495 154.343C45.9895 171.653 67.2495 196.133 67.4095 223.183C67.4595 232.563 59.4795 256.263 36.3395 243.433C36.3395 243.433 35.1795 240.673 37.7095 241.863C40.0787 243.629 42.8584 244.763 45.7871 245.159C48.7157 245.554 51.6968 245.198 54.4495 244.123C54.4495 244.123 66.7895 237.733 65.5995 218.413Z" fill="#975237"/>
<path d="M6.88945 185.053C6.88945 185.283 6.35944 186.153 5.50945 188.863C4.66168 191.433 3.99341 194.059 3.50945 196.723C2.86151 199.787 2.41722 202.89 2.17946 206.013C1.80064 211.951 1.99822 217.912 2.76945 223.813C4.07945 230.073 10.0895 260.433 39.6495 261.393C42.0195 261.683 70.3395 262.153 73.3595 224.393C73.6395 220.643 74.1095 200.393 59.5295 178.853C57.6745 176.279 55.6358 173.842 53.4295 171.563C53.2395 170.443 52.8895 168.413 52.8895 168.413C57.1556 172.651 61.1628 177.143 64.8895 181.863C69.0695 187.293 82.0495 209.013 78.4195 228.383C77.7695 232.663 71.3395 255.993 47.9695 262.773C45.4995 263.193 21.3995 267.933 7.88945 243.843C4.48375 237.672 2.16653 230.96 1.03944 224.003C-1.02055 212.213 0.109451 202.293 3.29945 189.623C4.12142 186.607 5.14712 183.65 6.36946 180.773C6.61946 183.483 6.88945 185.053 6.88945 185.053Z" fill="#975237"/>
<path fill-rule="evenodd" clip-rule="evenodd" d="M62.9794 54.7025C71.3394 61.7725 74.5995 77.0625 66.2195 86.0425C61.8495 90.7325 54.6694 92.7225 49.8494 97.1925C35.4194 110.563 28.1995 127.593 31.7195 141.083C21.9895 123.083 26.6394 104.843 42.5694 87.3525C50.1394 79.0425 64.9494 66.1825 62.9794 54.7025Z" fill="#975237"/>
<path fill-rule="evenodd" clip-rule="evenodd" d="M21.0995 208.833C14.0495 218.833 20.7395 251.303 39.4495 244.143C29.8495 230.713 35.6295 209.633 51.5095 216.093C45.4295 201.933 17.6595 215.783 29.5995 233.903C21.5095 230.213 20.9195 216.733 21.0995 208.833Z" fill="#975237"/>
<path d="M25.7095 225.673C24.0695 213.763 31.7095 206.283 40.1395 204.833C48.0195 203.503 56.3895 207.463 58.2895 218.383L59.1095 218.243C58.1095 212.583 55.4295 208.643 51.9195 206.323C48.385 204.064 44.122 203.237 39.9995 204.013C31.2395 205.493 23.8795 213.333 25.5895 225.693H25.7095V225.673Z" fill="#975237"/>
<path fill-rule="evenodd" clip-rule="evenodd" d="M5.21953 188.833C8.50953 182.413 11.0295 175.073 17.7895 172.773C19.0195 182.313 7.19954 181.653 5.68954 189.993C9.38954 184.923 17.0195 184.413 21.4095 179.813C25.4095 175.633 26.1295 168.383 26.1195 160.563C22.7795 165.113 16.2195 166.083 11.8795 169.753C7.15951 173.733 4.19953 179.793 5.21953 188.833Z" fill="#975237"/>
<path d="M77.0295 163.743C86.6695 162.073 94.2295 151.493 92.6295 141.953C92.522 140.964 92.3143 139.989 92.0095 139.043C94.2751 137.008 96.17 134.596 97.6095 131.913C99.0895 128.083 99.6095 125.243 99.0295 121.813C98.74 120.234 98.3219 118.683 97.7795 117.173C94.4095 107.453 82.0495 101.253 70.9895 101.013V101.793C81.7295 102.003 92.3895 109.183 95.6095 118.533C96.1364 120.003 96.5411 121.515 96.8195 123.053C97.3836 126.405 96.9561 129.85 95.5895 132.963C94.6195 135 93.2209 136.805 91.4895 138.253C90.7528 136.689 89.7552 135.262 88.5395 134.033C88.0266 133.465 87.3808 133.033 86.6599 132.777C85.9391 132.52 85.1658 132.446 84.4095 132.563C83.1534 132.788 82.0312 133.486 81.2726 134.512C80.5141 135.538 80.1766 136.816 80.3295 138.083C80.4577 138.71 80.7082 139.305 81.0669 139.836C81.4255 140.366 81.8851 140.82 82.4195 141.173C82.9661 141.563 83.5879 141.836 84.2455 141.974C84.903 142.111 85.5821 142.111 86.2395 141.973C88.0593 141.565 89.7539 140.725 91.1795 139.523C91.4952 140.355 91.7296 141.215 91.8795 142.093C92.5224 146.795 91.2825 151.56 88.4295 155.353C85.7274 159.292 81.6004 162.028 76.9195 162.983C74.2451 163.439 71.496 163.131 68.9895 162.093L68.6995 162.813C71.3393 163.904 74.2341 164.227 77.0495 163.743H77.0295ZM86.0895 141.213C85.5324 141.331 84.9569 141.332 84.3993 141.217C83.8416 141.102 83.3139 140.872 82.8495 140.543C82.3974 140.247 82.0083 139.866 81.7046 139.42C81.4008 138.973 81.1883 138.471 81.0795 137.943C80.9731 136.883 81.2673 135.823 81.904 134.969C82.5407 134.116 83.4737 133.532 84.5195 133.333C85.1509 133.233 85.7971 133.295 86.3984 133.512C86.9997 133.728 87.5366 134.093 87.9595 134.573C89.1676 135.787 90.1466 137.21 90.8495 138.773C89.4927 139.973 87.8558 140.812 86.0895 141.213Z" fill="#975237"/>
<path fill-rule="evenodd" clip-rule="evenodd" d="M67.5195 88.8626C74.0195 86.9626 80.2895 84.7826 82.5195 80.0126C75.6295 78.3426 73.0295 87.3926 64.5195 89.3626C70.2095 86.5526 73.8795 79.6426 77.5995 76.7926C80.9895 74.2026 86.3595 74.2526 92.0895 74.8926C88.4795 76.9726 87.2495 81.7026 84.1995 84.5926C80.9695 87.7226 74.2195 89.6826 67.5195 88.8626Z" fill="#975237"/>
<path d="M54.2195 70.2626C52.0995 73.0826 50.1195 75.5926 47.7195 78.2626C43.2995 83.0826 39.3995 86.1626 34.2295 92.7626C30.2462 97.8736 27.3225 103.728 25.6295 109.983C23.7495 117.203 24.9395 129.413 27.1095 136.343C30.3829 146.317 34.7424 155.901 40.1095 164.923C39.8895 167.253 33.2395 155.923 30.2595 149.003C24.4795 135.523 19.9095 121.003 24.1695 106.503C25.6483 101.632 27.8423 97.0085 30.6795 92.7826C34.0495 88.1326 38.3395 84.0926 42.4995 80.1226C47.4995 75.3126 52.1695 71.4826 54.7195 64.7726C60.4595 49.6726 50.6495 40.3026 48.6295 39.2026C52.7595 39.5526 53.7595 42.1426 56.4995 43.2026C59.2395 44.2626 60.4395 41.7026 62.2795 38.1326C64.1195 34.5626 67.6295 33.4026 68.8595 34.0626C67.1095 35.6826 65.3395 39.9126 61.8595 51.3526C58.2995 64.4726 55.0495 68.6726 54.2195 70.2626Z" fill="#975237"/>
<path d="M29.0795 88.3526C30.3864 86.5767 31.806 84.8866 33.3295 83.2926C35.6995 80.5726 38.3295 78.2926 40.8295 75.7826C42.0966 74.5261 43.2824 73.19 44.3795 71.7826C50.0295 64.6726 51.8195 55.6426 46.8995 47.6626C44.5511 43.8994 40.966 41.0709 36.7595 39.6626C27.7595 36.3926 19.2395 40.3926 15.9795 49.3226C14.9773 52.0786 15.0021 55.1035 16.0495 57.8426C16.6333 59.5103 17.5898 61.0229 18.8461 62.2653C20.1024 63.5078 21.6255 64.4474 23.2995 65.0126C24.5444 65.5043 25.88 65.7239 27.2167 65.6566C28.5535 65.5894 29.8603 65.2368 31.0495 64.6226C33.4144 63.4732 35.2371 61.4459 36.1295 58.9726C36.4879 58.061 36.6388 57.0809 36.5714 56.1037C36.5039 55.1264 36.2198 54.1764 35.7395 53.3226C34.8712 51.8561 33.4881 50.7652 31.8595 50.2626C30.9485 49.9326 29.9506 49.9326 29.0395 50.2626C28.6279 50.3629 28.2453 50.558 27.9224 50.8323C27.5995 51.1066 27.3451 51.4526 27.1795 51.8426C26.9266 52.4296 26.9051 53.0905 27.1195 53.6926C27.309 54.0197 27.5626 54.3052 27.865 54.532C28.1674 54.7588 28.5125 54.9223 28.8795 55.0126C29.2478 55.1552 29.6298 55.2591 30.0195 55.3226C29.7495 55.8326 29.5495 56.1926 29.3995 56.4326C29.0133 57.0616 28.416 57.5327 27.7143 57.7617C27.0127 57.9906 26.2524 57.9626 25.5695 57.6826C24.9647 57.496 24.411 57.1724 23.9514 56.7371C23.4918 56.3018 23.1387 55.7665 22.9195 55.1726C22.5947 54.3123 22.5947 53.363 22.9195 52.5026C23.1778 51.6012 23.6584 50.779 24.3171 50.1116C24.9758 49.4441 25.7916 48.9528 26.6896 48.6826C28.565 48.1789 30.5527 48.2911 32.3595 49.0026C34.3028 49.7421 35.8884 51.1988 36.7895 53.0726C37.2923 54.0303 37.5837 55.0847 37.6441 56.1646C37.7045 57.2446 37.5324 58.3249 37.1395 59.3326C32.8795 71.0326 16.7495 67.4226 14.3295 56.4226C13.787 54.0987 13.9294 51.6673 14.7395 49.4226C19.3095 36.8726 34.5795 31.6126 46.3395 43.5726C42.8695 35.3626 38.9195 25.3226 38.5895 18.4426C38.2295 10.9426 43.0095 -0.96737 52.4895 0.0626296C60.1195 0.89263 64.8995 10.4026 58.6195 16.8826C56.0195 19.5426 51.1595 19.9726 48.7295 17.4426C47.1695 15.8826 46.4495 13.4426 47.7995 11.5126C48.1332 10.9425 48.6721 10.5215 49.306 10.3356C49.9399 10.1497 50.6208 10.213 51.2095 10.5126C51.535 10.6809 51.8034 10.9414 51.9813 11.2616C52.1592 11.5819 52.2386 11.9475 52.2095 12.3126C51.9395 14.3126 50.3895 13.7826 49.5295 14.0926C49.5052 14.4423 49.555 14.7932 49.6756 15.1224C49.7962 15.4515 49.985 15.7515 50.2295 16.0026C51.8895 18.0826 55.8395 17.0026 57.3995 14.9226C60.0395 11.5126 59.4895 6.44264 56.0895 4.12264C45.1695 -3.35736 39.8295 11.6426 40.3495 18.9726C41.0695 29.0526 46.4595 37.7426 49.7095 47.0526C51.2195 51.3726 52.2995 55.9426 51.5895 60.5326C50.4295 68.0526 46.0895 73.4526 40.5895 78.4126C38.1673 80.5783 35.8891 82.9 33.7695 85.3626C31.5674 87.7758 29.561 90.3607 27.7695 93.0926C26.3665 95.2339 25.1711 97.5042 24.1995 99.8726C22.6111 103.842 21.6334 108.03 21.2995 112.293C20.9095 110.553 20.9895 109.493 21.8595 104.613C22.3464 102.203 23.0424 99.8411 23.9396 97.5527C25.1849 94.247 26.9174 91.1461 29.0795 88.3526Z" fill="#975237"/>
<path fill-rule="evenodd" clip-rule="evenodd" d="M51.3695 99.4926C52.5102 98.4522 53.7306 97.5027 55.0195 96.6526C56.034 95.987 57.0895 95.3858 58.1795 94.8527C60.3395 93.7827 62.5995 92.9327 64.8495 92.0727C70.8495 89.8027 80.5595 88.9927 83.9595 94.9427C85.5305 93.3934 87.6159 92.4753 89.8195 92.3627C93.3895 91.9527 97.0395 94.4526 99.3395 96.8426C103.97 101.633 103.87 109.903 113.62 105.843C110.07 110.583 104.839 109.253 100.379 106.663C98.341 105.358 96.3779 103.939 94.4995 102.413C90.0343 99.3542 85.013 97.2003 79.7195 96.0727C74.7195 95.0727 73.2995 95.4027 67.3595 95.2327C61.0295 95.0627 51.1995 100.063 46.2195 104.083C47.2679 102.92 48.4266 101.862 49.6795 100.923C50.2995 100.413 50.9995 99.8326 51.3695 99.4926Z" fill="#975237"/>
<path d="M56.2094 128.543C56.1817 128.478 56.1583 128.411 56.1394 128.343C55.8494 127.463 55.8294 125.933 56.8494 125.433C57.0753 125.317 57.3256 125.256 57.5794 125.256C57.8333 125.256 58.0835 125.317 58.3094 125.433C59.6694 126.113 58.9494 127.723 58.9794 128.853C59.0338 129.508 59.2437 130.141 59.5915 130.699C59.9393 131.258 60.415 131.725 60.9794 132.063C62.0849 132.665 63.331 132.962 64.5894 132.923C66.0872 132.883 67.5514 132.471 68.8494 131.723C70.1651 130.963 71.3012 129.929 72.1797 128.689C73.0583 127.45 73.6586 126.036 73.9394 124.543C74.0581 123.863 74.1116 123.173 74.0994 122.483C73.7794 111.203 62.4494 108.603 53.7294 114.703C37.9294 125.763 40.5594 150.103 49.7294 164.393L50.7294 168.663C39.4694 151.933 34.9994 125.363 52.9294 112.813C62.8194 105.893 75.6694 108.813 76.0394 121.643C76.0856 124.258 75.2594 126.814 73.6912 128.907C72.123 131.001 69.9022 132.512 67.3794 133.203C65.3791 133.751 63.2579 133.663 61.3094 132.953C60.2273 132.502 59.2167 131.895 58.3094 131.153C57.4194 130.454 56.701 129.562 56.2094 128.543Z" fill="#975237"/>
<path fill-rule="evenodd" clip-rule="evenodd" d="M48.7195 142.953C53.4495 138.423 58.3495 138.423 61.8595 141.243C62.9795 142.133 63.8595 144.173 63.5395 144.883C63.4295 145.353 63.1695 145.313 62.9695 144.733C59.9695 136.113 49.6595 141.783 48.7895 145.833C49.3036 145.495 49.8802 145.264 50.4852 145.153C51.0901 145.042 51.7112 145.054 52.3116 145.187C52.912 145.32 53.4796 145.573 53.9808 145.929C54.482 146.286 54.9066 146.739 55.2295 147.263C54.9795 146.803 52.4195 148.563 52.1695 148.783C51.2119 149.699 50.4735 150.821 50.0095 152.063C48.9913 154.797 48.6683 157.742 49.0695 160.633C49.231 161.947 49.4749 163.249 49.7995 164.533C48.2195 163.173 46.8495 160.453 45.9695 158.533C44.9834 156.486 44.4968 154.234 44.5495 151.963C44.7264 148.534 46.2203 145.306 48.7195 142.953Z" fill="#975237"/>
<path d="M14.8695 232.293C15.1595 233.443 13.8694 236.613 13.7695 237.973C13.5895 241.373 12.5194 244.723 12.5694 248.133C12.646 252.559 13.1619 256.968 14.1094 261.293C15.4394 265.883 21.5995 288.203 43.6495 287.213C45.4295 287.293 66.5294 286.013 66.5994 257.713C66.5994 254.903 66.5395 239.953 54.4395 224.713C52.6341 222.871 50.7242 221.135 48.7195 219.513C48.276 218.824 48.0688 218.01 48.1294 217.193C51.5675 219.517 54.6988 222.265 57.4494 225.373C60.8294 229.213 72.1994 245.733 70.6094 260.373C70.3694 263.593 66.9395 281.323 49.9395 287.723C48.1195 288.173 28.5894 292.923 18.5994 274.903C16.1884 270.903 14.2806 266.62 12.9194 262.153C11.8373 258.101 11.2431 253.935 11.1495 249.743C11.0695 246.403 10.8494 243.073 11.5994 239.743C11.9194 238.333 12.2694 236.973 12.5394 235.553C12.8594 233.833 14.5395 230.673 14.2395 229.043C14.5795 231.133 14.8695 232.293 14.8695 232.293Z" fill="#975237"/>
<path fill-rule="evenodd" clip-rule="evenodd" d="M63.6995 61.5326C69.6995 67.1326 70.7695 78.5326 64.1595 84.9226C61.7395 87.2826 59.5695 88.4526 56.0395 90.5926C52.8295 92.5926 50.1695 94.3626 47.1495 96.5926C44.6373 98.4391 42.3721 100.6 40.4095 103.023C38.9281 104.697 37.5585 106.468 36.3095 108.323C34.2495 111.583 33.6995 113.563 31.9795 116.973C30.669 119.983 29.7936 123.165 29.3795 126.423C29.1195 118.423 29.7995 110.853 33.6495 103.663C35.3164 100.635 37.163 97.7096 39.1795 94.9026C41.7285 91.467 44.5475 88.2401 47.6095 85.2526C53.5995 79.2726 64.7495 70.2126 63.6995 61.5326Z" stroke="#975237" stroke-width="0.98"/>
</svg>
