<svg width="104" height="372" viewBox="0 0 104 372" fill="none" xmlns="http://www.w3.org/2000/svg">
<path fill-rule="evenodd" clip-rule="evenodd" d="M80.087 24.9752C85.4319 21.4758 87.645 16.3226 89.7383 10.5941C84.641 16.0909 75.461 11.8245 69.8364 16.2347C65.2185 19.854 65.3783 25.9739 66.337 31.223C69.8604 27.4839 75.8126 27.7795 80.087 24.9752Z" stroke="#975237"/>
<path fill-rule="evenodd" clip-rule="evenodd" d="M35.4572 114.202C38.0698 108.985 41.753 98.1032 41.6012 92.5505C41.4254 86.2947 33.8354 82.4278 30.2401 77.5062C25.6302 71.2105 24.8871 68.582 23.0495 61.4313C22.1707 57.9879 21.5795 53.7534 22.5702 50.246C23.3691 47.4417 24.0642 43.6467 23.457 40.6586C23.0735 38.7651 22.2266 33.2923 17.0095 32.6691C29.9045 33.8995 37.5585 45.4523 41.2896 53.8493C46.291 65.0985 47.7211 71.6659 43.7264 89.9379C42.7916 94.1963 42.0326 97.8795 40.978 102.114C40.0352 105.885 38.1897 111.31 35.8967 114.498C34.4106 116.607 34.6263 115.864 35.4572 114.202Z" fill="#975237"/>
<path fill-rule="evenodd" clip-rule="evenodd" d="M87.4048 67.048C90.5207 62.2543 98.1028 62.3501 100.492 66.0732C101.506 67.6711 101.482 70.068 99.9963 70.8669C97.3997 72.2092 96.369 68.1825 94.5714 66.6085C92.3024 64.6192 90.4328 65.8575 87.4048 67.048Z" fill="#975237"/>
<path fill-rule="evenodd" clip-rule="evenodd" d="M41.6172 185.229C38.0858 177.623 35.633 170.8 30.7994 164.919C24.4877 157.233 17.1453 156.299 10.3143 148.9C10.8496 155.012 10.9934 162.187 14.8683 167.548C20.2932 175.066 31.4545 175.617 37.2389 181.21C31.9579 175.617 21.2599 172.709 20.0056 161.875C28.4505 165.686 35.7689 174.283 41.6172 185.229Z" fill="#975237"/>
<path fill-rule="evenodd" clip-rule="evenodd" d="M55.5112 105.901C55.3541 106.003 55.1744 106.065 54.9878 106.082C54.8012 106.098 54.6134 106.069 54.4406 105.997C53.37 105.605 53.1863 103.504 52.9626 102.585C52.5232 100.836 51.8201 99.8209 49.8307 100.061C51.6603 98.0871 55.8468 101.195 56.3421 103.129C56.4553 103.623 56.4382 104.138 56.2926 104.624C56.1469 105.11 55.8777 105.55 55.5112 105.901Z" fill="#975237"/>
<path fill-rule="evenodd" clip-rule="evenodd" d="M33.9318 338.691C33.7487 337.727 33.4114 336.799 32.9331 335.943C50.9574 327.25 54.1852 311.303 50.3901 304.24C46.5632 296.882 38.7574 293.423 33.8678 296.251C28.6826 298.815 28.8424 301.332 30.0568 302.946C31.0076 304.544 32.3418 303.377 33.3885 302.147C35.2101 299.79 40.0198 300.054 42.2249 304.136C44.1663 308.235 43.2795 312.238 38.1023 314.786C33.1967 317.343 27.7159 314.595 25.1673 310.248C22.6186 305.343 23.817 297.385 32.0063 293.239C39.8999 289.108 49.743 293.838 54.1852 302.027C58.3237 309.921 56.8377 326.883 33.9318 338.683V338.691Z" fill="#975237"/>
<path fill-rule="evenodd" clip-rule="evenodd" d="M27.4284 352.073C34.9385 355.309 45.0532 357.938 57.2852 358.657C67.7914 359.272 80.8942 358.193 86.0474 353.416C90.7213 349.069 89.3151 340.672 82.2604 340.097C77.4107 339.706 72.673 341.128 68.8939 342.678C57.3011 347.44 43.9107 353.424 27.4284 352.073Z" fill="#975237"/>
<path fill-rule="evenodd" clip-rule="evenodd" d="M26.6607 353.687C30.9038 358.529 35.9465 362.607 41.5691 365.744C47.2896 369.027 54.9436 372.087 59.146 370.849C62.989 369.714 64.5469 364.609 60.7439 362.316C58.2161 360.922 55.399 360.134 52.5148 360.015C44.717 359.448 35.5291 359.056 26.6607 353.687Z" fill="#975237"/>
<path fill-rule="evenodd" clip-rule="evenodd" d="M54.9999 322.281C59.7168 317.901 63.6438 312.742 66.6087 307.029C69.7246 301.204 72.5688 293.447 71.2026 289.284C69.9563 285.473 64.811 284.067 62.6219 287.926C61.3038 290.494 60.6009 293.333 60.5686 296.219C60.233 304.057 60.1052 313.3 54.9999 322.281Z" fill="#975237"/>
<path fill-rule="evenodd" clip-rule="evenodd" d="M79.2002 337.892C81.4654 338.216 83.7758 337.871 85.8479 336.9C87.92 335.929 89.6636 334.375 90.8649 332.427C91.8476 330.877 92.4628 329.104 93.4774 327.562C93.9568 326.835 95.8263 324.126 96.881 323.727C97.2993 323.543 97.7443 323.427 98.1992 323.383C93.6212 322.528 88.9634 320.875 84.6171 323.599C80.4705 326.204 78.3213 332.595 76.6915 337.053C81.2375 334.017 83.5864 325.54 90.2736 325.588C90.6891 325.588 89.3708 329.128 88.6757 330.27C87.8956 331.52 86.897 332.618 85.7276 333.514C83.3947 335.344 80.5824 336.414 78.0976 338.012C78.4475 337.873 78.8286 337.831 79.2002 337.892Z" fill="#975237"/>
<path fill-rule="evenodd" clip-rule="evenodd" d="M30.8476 128.048C35.13 117.773 26.6212 105.797 18.0644 106.077C14.4132 106.189 10.5543 108.881 10.9458 112.109C11.6408 117.701 19.2149 114.961 23.729 116.104C29.3376 117.558 29.4015 121.904 30.8476 128.048Z" fill="#975237"/>
<path fill-rule="evenodd" clip-rule="evenodd" d="M47.4737 96.3774C51.4342 96.8747 55.4441 95.9732 58.8108 93.8287C60.7751 92.5117 62.4409 90.7969 63.7004 88.7953C65.0826 86.6461 65.9374 84.1694 67.3436 82.0282C68.0067 81.0135 70.6113 77.2345 72.0814 76.6912C72.6646 76.4337 73.2847 76.2692 73.9189 76.2039C67.5273 75.0214 61.0718 72.7204 55.0318 76.5075C49.2633 80.1347 46.2433 89.027 44.0062 95.2349C50.3259 91.0164 53.5936 79.2559 62.8455 79.2559C63.4287 79.2559 61.5911 84.1694 60.6084 85.7593C59.5184 87.4981 58.1279 89.0293 56.5018 90.2814C53.2501 92.822 49.3113 94.2761 45.8918 96.5372C46.3924 96.3315 46.942 96.276 47.4737 96.3774Z" fill="#975237"/>
<path fill-rule="evenodd" clip-rule="evenodd" d="M53.8011 52.9224C54.9996 47.194 59.0263 42.3603 63.9877 39.5161C69.3647 42.7119 71.7136 51.9797 65.9132 57.3167C63.013 59.9852 54.2485 66.1051 56.7572 72.6246C52.7865 68.51 52.6826 58.3154 53.8011 52.9224Z" fill="#975237"/>
<path fill-rule="evenodd" clip-rule="evenodd" d="M48.864 42.7519C54.7203 42.6081 58.9308 39.6679 63.333 36.2245C56.6937 38.0621 51.6284 30.2723 45.1169 30.9833C39.772 31.5666 36.9357 36.4082 35.138 40.9622C39.6921 39.7558 44.1822 42.8637 48.864 42.7519Z" fill="#975237"/>
<path fill-rule="evenodd" clip-rule="evenodd" d="M71.2264 26.5891C67.6791 28.187 66.3209 33.0846 65.0026 36.4002C68.1984 34.5227 72.8483 36.0008 76.3717 34.4268C80.0469 32.789 80.5422 28.5306 83.7061 26.677C80.2146 26.8688 74.3264 25.183 71.2264 26.5891Z" fill="#975237"/>
<path fill-rule="evenodd" clip-rule="evenodd" d="M60.7283 26.8847C62.486 29.1457 62.9175 32.014 63.6365 34.6984C64.8589 31.8621 67.2318 27.0045 67.096 23.6809C66.9921 20.9405 65.3143 16.1388 63.4607 14.1574C59.6098 10.0588 51.844 5.9362 51.9639 0C49.0876 6.76711 47.0743 15.2839 52.9386 20.7727C55.4633 23.0977 58.5872 24.1203 60.7283 26.8847Z" fill="#975237"/>
<path fill-rule="evenodd" clip-rule="evenodd" d="M63.6045 36.0646C62.0785 35.5214 62.8695 29.9766 62.6058 28.7463C62.0685 25.6852 60.3752 22.9478 57.876 21.1003C54.9199 19.1109 48.4884 16.3066 45.0928 16.738C45.8438 16.6661 46.9624 22.2108 47.194 22.8101C50.1182 30.2323 56.4139 33.4601 63.6045 36.0646Z" fill="#975237" stroke="white" stroke-width="2.31"/>
<path fill-rule="evenodd" clip-rule="evenodd" d="M21.7956 77.3543C21.7956 79.0925 22.3111 80.7917 23.2768 82.2369C24.2425 83.6822 25.615 84.8086 27.2209 85.4738C28.8268 86.139 30.5938 86.313 32.2986 85.9739C34.0034 85.6348 35.5694 84.7978 36.7985 83.5687C38.0276 82.3396 38.8646 80.7737 39.2037 79.0689C39.5428 77.3641 39.3687 75.597 38.7036 73.9911C38.0384 72.3853 36.912 71.0127 35.4667 70.047C34.0214 69.0813 32.3223 68.5659 30.5841 68.5659C29.4285 68.5606 28.2833 68.7843 27.2147 69.2241C26.146 69.6639 25.1751 70.311 24.3579 71.1282C23.5408 71.9453 22.8936 72.9162 22.4539 73.9849C22.0141 75.0536 21.7904 76.1987 21.7956 77.3543V77.3543Z" stroke="#975237" stroke-width="3.87"/>
<path fill-rule="evenodd" clip-rule="evenodd" d="M79.7433 59.1064C78.0335 61.3994 75.381 62.5818 72.9842 63.988C76.0441 64.4114 81.3572 65.4101 84.529 64.3954C87.1416 63.5965 91.3201 60.6643 92.7342 58.3474C95.6584 53.5537 97.5679 44.965 103.32 43.4949C96.0339 42.5282 87.2934 42.8557 83.5862 49.9584C81.9803 53.0264 81.8365 56.3101 79.7433 59.1064Z" fill="#975237"/>
<path fill-rule="evenodd" clip-rule="evenodd" d="M71.6898 64.3555C71.8096 62.7576 77.3703 62.0225 78.4809 61.4473C81.2912 60.1156 83.4803 57.7521 84.5928 54.848C85.7194 51.4684 86.734 44.5175 85.3918 41.3377C85.6634 42.0328 80.5981 44.5894 80.1027 44.9729C73.6872 49.7746 72.2491 56.6696 71.6898 64.3555Z" fill="#975237" stroke="white" stroke-width="2.31"/>
<path fill-rule="evenodd" clip-rule="evenodd" d="M51.5482 285.441C53.8172 287.926 54.6002 291.241 55.6948 294.325C56.8612 290.882 59.1862 284.97 58.7068 281.087C58.3153 277.891 55.8945 272.418 53.5376 270.277C48.64 265.835 39.1565 261.744 38.7171 254.777C35.9926 262.975 34.4507 273.153 41.833 278.994C45.0208 281.51 48.7838 282.413 51.5482 285.441Z" fill="#975237"/>
<path fill-rule="evenodd" clip-rule="evenodd" d="M55.8306 295.899C53.993 295.404 54.3925 288.829 53.969 287.414C52.9543 283.995 50.8691 280.679 47.6972 278.898C44.046 276.852 36.2403 274.16 32.2695 275.015C33.1404 274.855 34.978 281.255 35.3055 281.926C39.4361 290.379 47.0821 293.558 55.8306 295.899Z" fill="#975237" stroke="white" stroke-width="2.68"/>
<path fill-rule="evenodd" clip-rule="evenodd" d="M67.5994 72.1772C74.5343 64.0039 88.5319 66.0572 92.0472 73.5194C93.5493 76.7152 92.9341 81.1893 89.9939 82.3079C84.8647 84.1694 83.9299 76.4676 80.9738 73.1279C77.2507 68.8615 73.5036 70.7071 67.5994 72.1772Z" fill="#975237"/>
<path fill-rule="evenodd" clip-rule="evenodd" d="M32.6293 53.4019C32.6293 54.538 32.9662 55.6486 33.5974 56.5933C34.2286 57.538 35.1257 58.2743 36.1754 58.7091C37.2251 59.1438 38.3801 59.2576 39.4944 59.0359C40.6087 58.8143 41.6323 58.2672 42.4356 57.4638C43.239 56.6604 43.7861 55.6369 44.0078 54.5226C44.2294 53.4082 44.1157 52.2532 43.6809 51.2036C43.2461 50.1539 42.5098 49.2567 41.5652 48.6255C40.6205 47.9943 39.5099 47.6574 38.3737 47.6574C36.8502 47.6574 35.3891 48.2626 34.3118 49.3399C33.2345 50.4172 32.6293 51.8783 32.6293 53.4019V53.4019Z" stroke="#975237" stroke-width="2.54"/>
<path fill-rule="evenodd" clip-rule="evenodd" d="M54.4247 97.7915C55.5057 99.1504 56.9606 100.163 58.6102 100.706C60.2598 101.248 62.032 101.296 63.7085 100.844C65.0587 100.508 66.321 99.8448 67.7032 99.5253C68.3424 99.3655 70.7872 98.8462 71.5781 99.1817C71.9047 99.2951 72.2099 99.4625 72.481 99.6771C70.4037 96.8168 68.6939 93.4852 64.8829 92.7262C61.2078 91.9912 56.7097 94.388 53.4819 96.0259C57.5725 96.721 63.285 93.2695 66.9283 96.7529C67.152 96.9766 64.5873 98.231 63.6046 98.4946C62.5204 98.7749 61.3953 98.8615 60.281 98.7503C58.0439 98.5426 55.9347 97.6717 53.7296 97.2642C54.0079 97.3682 54.2496 97.5515 54.4247 97.7915Z" fill="#975237"/>
<path fill-rule="evenodd" clip-rule="evenodd" d="M23.8886 130.804C23.8886 131.556 24.1117 132.292 24.5295 132.917C24.9474 133.542 25.5414 134.03 26.2363 134.318C26.9312 134.606 27.6958 134.681 28.4336 134.534C29.1713 134.387 29.8489 134.025 30.3808 133.493C30.9126 132.961 31.2748 132.284 31.4216 131.546C31.5683 130.808 31.493 130.044 31.2051 129.349C30.9173 128.654 30.4299 128.06 29.8045 127.642C29.1791 127.224 28.4438 127.001 27.6916 127.001C27.1922 127.001 26.6977 127.1 26.2363 127.291C25.7749 127.482 25.3556 127.762 25.0025 128.115C24.6494 128.468 24.3692 128.887 24.1781 129.349C23.987 129.81 23.8886 130.305 23.8886 130.804Z" fill="#975237"/>
<path fill-rule="evenodd" clip-rule="evenodd" d="M35.3779 108.585C36.2247 105.022 36.3765 100.46 35.0183 97.1764C34.1218 95.0254 32.7825 93.0872 31.0875 91.4879C29.2819 89.7542 27.0927 88.4519 25.2711 86.6942C24.4242 85.8952 21.2764 82.6355 21.0367 81.1015C20.9017 80.4908 20.864 79.8625 20.9248 79.24C17.5852 87.589 12.456 95.9381 21.9235 102.234C26.2698 105.118 30.0728 107.579 33.5163 111.677C30.664 104.782 19.9341 99.3735 21.7717 90.4892C21.8836 89.922 26.2618 92.6384 27.6041 93.8848C29.0648 95.2604 30.2711 96.8832 31.1674 98.6785C32.9011 102.122 33.788 105.917 35.1621 109.456C35.2261 109.193 35.306 108.897 35.3779 108.585Z" stroke="#975237"/>
<path fill-rule="evenodd" clip-rule="evenodd" d="M45.4603 175.833C41.9609 167.292 44.7173 157.968 51.5723 153.351C58.4272 148.733 67.8549 149.42 73.2558 144.402C79.8391 138.29 76.4516 129.406 65.0985 129.766C46.1154 130.341 30.456 157.585 45.4603 175.833Z" fill="#975237"/>
<path fill-rule="evenodd" clip-rule="evenodd" d="M44.8772 154.94C44.8772 155.731 45.1115 156.503 45.5504 157.16C45.9894 157.817 46.6133 158.329 47.3432 158.631C48.0732 158.933 48.8764 159.013 49.6513 158.858C50.4262 158.704 51.138 158.324 51.6967 157.765C52.2553 157.206 52.6358 156.495 52.7899 155.72C52.9441 154.945 52.865 154.142 52.5626 153.412C52.2603 152.682 51.7482 152.058 51.0913 151.619C50.4344 151.18 49.662 150.946 48.8719 150.946C47.8125 150.946 46.7964 151.367 46.0472 152.116C45.2981 152.865 44.8772 153.881 44.8772 154.94Z" stroke="#975237" stroke-width="2.33"/>
<path fill-rule="evenodd" clip-rule="evenodd" d="M51.756 133.88C51.7544 135.399 52.2036 136.885 53.0466 138.149C53.8897 139.413 55.0887 140.398 56.492 140.98C57.8953 141.562 59.4397 141.715 60.9298 141.419C62.4199 141.123 63.7887 140.391 64.863 139.317C65.9373 138.243 66.6687 136.874 66.9647 135.384C67.2607 133.894 67.1079 132.35 66.5258 130.946C65.9437 129.543 64.9584 128.344 63.6945 127.501C62.4307 126.658 60.9451 126.209 59.4259 126.21C57.3917 126.21 55.4408 127.018 54.0025 128.457C52.5641 129.895 51.756 131.846 51.756 133.88V133.88Z" stroke="#975237" stroke-width="4.43"/>
<path fill-rule="evenodd" clip-rule="evenodd" d="M62.8535 203.109C65.8656 207.224 70.0441 208.782 74.71 210.22C70.1 206.377 73.16 198.883 69.4129 194.576C66.3449 191.037 61.4713 191.381 57.3168 192.395C60.4087 195.056 60.4087 199.802 62.8535 203.109Z" stroke="#975237"/>
<path fill-rule="evenodd" clip-rule="evenodd" d="M47.4176 178.925C47.7691 183.591 50.2778 186.827 53.202 190.198C51.4763 184.973 57.4764 180.611 56.6535 175.458C55.9744 171.215 51.9956 169.146 48.2884 167.907C49.4389 171.479 47.138 175.186 47.4176 178.925Z" fill="#975237"/>
<path fill-rule="evenodd" clip-rule="evenodd" d="M61.2078 196.102C59.7777 193.338 55.8309 192.451 53.1305 191.54C54.7284 194.009 53.7616 197.78 55.1598 200.521C56.6139 203.389 60.0334 203.613 61.6393 206.065C61.3517 203.277 62.4622 198.515 61.2078 196.102Z" fill="#975237"/>
<path fill-rule="evenodd" clip-rule="evenodd" d="M60.5524 187.745C58.8187 189.231 56.5577 189.695 54.4324 190.374C56.7494 191.237 60.7122 192.939 63.3647 192.691C65.5459 192.491 69.3089 190.965 70.8109 189.407C73.9268 186.171 76.8989 179.82 81.6367 179.66C76.124 177.639 69.253 176.384 65.1304 181.258C63.3567 183.391 62.6696 185.924 60.5524 187.745Z" fill="#975237"/>
<path fill-rule="evenodd" clip-rule="evenodd" d="M53.3617 190.438C53.7372 189.192 58.1554 189.599 59.1621 189.343C61.5838 188.792 63.7007 187.33 65.0743 185.261C66.5364 182.824 68.5338 177.583 68.0305 174.874C68.1183 175.466 63.7401 176.584 63.2767 176.792C57.4524 179.412 55.1354 184.542 53.3617 190.438Z" fill="#975237" stroke="white" stroke-width="1.84"/>
<path fill-rule="evenodd" clip-rule="evenodd" d="M44.4297 97.6477C50.1662 98.0232 53.7534 104.702 51.6682 108.593C50.7734 110.255 48.6481 111.43 47.242 110.503C44.8451 108.905 47.8172 106.029 48.3206 103.688C48.9837 100.78 46.9943 99.717 44.4297 97.6477Z" fill="#975237"/>
<path fill-rule="evenodd" clip-rule="evenodd" d="M26.0136 181.474C26.0472 181.699 26.1411 181.912 26.2853 182.089C27.1721 183.231 29.2014 181.953 30.1761 181.53C30.7927 181.17 31.5007 180.998 32.2135 181.034C32.6848 181.122 34.083 181.937 33.9712 182.536C34.4346 180.052 29.9285 178.645 28.1468 179.061C27.228 179.285 25.75 179.876 26.0136 181.474Z" fill="#975237"/>
<path fill-rule="evenodd" clip-rule="evenodd" d="M39.0767 186.052C35.4894 181.817 28.2429 182.856 26.4293 186.747C25.6303 188.393 25.9739 190.741 27.4999 191.277C30.1444 192.235 30.6318 188.249 32.1577 186.483C34.0433 184.334 36.0247 185.293 39.0767 186.052Z" fill="#975237"/>
<path fill-rule="evenodd" clip-rule="evenodd" d="M28.6826 126.178C30.1127 121.528 25.4868 118.085 21.54 119.451C19.8462 120.026 18.2004 121.648 18.5679 122.855C19.1991 124.956 22.5626 122.759 24.7038 122.551C27.4203 122.287 27.652 123.949 28.6826 126.178Z" fill="#975237"/>
<path fill-rule="evenodd" clip-rule="evenodd" d="M29.9922 277.931C31.5901 273.089 30.4317 268.775 28.8977 264.149C28.4503 270.133 20.5726 271.995 19.2384 277.547C18.1438 282.101 21.2757 285.849 24.4875 288.661C24.839 284.578 28.7059 281.814 29.9922 277.931Z" stroke="#975237"/>
<path fill-rule="evenodd" clip-rule="evenodd" d="M19.2706 304.512C22.8658 301.516 24.0643 297.593 25.0869 293.255C21.8432 297.689 14.8124 295.332 11.0893 299.007C8.02932 302.019 8.69245 306.461 9.795 310.193C12.0401 307.22 16.3943 306.909 19.2706 304.512Z" fill="#975237"/>
<path fill-rule="evenodd" clip-rule="evenodd" d="M25.2547 283.34C23.8326 286.104 25.4065 289.835 26.2294 292.56C27.292 289.803 30.9432 288.429 32.3654 285.697C33.7875 282.964 32.0458 279.928 33.1084 277.204C31.0072 279.057 26.4851 280.919 25.2547 283.34Z" fill="#975237"/>
<path fill-rule="evenodd" clip-rule="evenodd" d="M18.8235 288.725C21.0446 289.276 22.7384 290.858 24.52 292.184C23.8729 289.787 22.9221 285.577 21.2203 283.564C19.7902 281.91 16.3627 279.729 14.2215 279.409C9.77938 278.754 2.87645 280.024 0.000225067 276.253C1.59813 281.918 4.53028 288.237 10.8979 288.757C13.6543 288.972 16.1151 288.062 18.8235 288.725Z" fill="#975237"/>
<path fill-rule="evenodd" clip-rule="evenodd" d="M25.1909 293.015C23.9605 293.431 21.7075 289.564 20.9325 288.925C19.0761 287.28 16.6604 286.408 14.1814 286.488C11.3451 286.711 5.91224 288.134 4.00275 290.115C4.43418 289.7 7.88565 292.616 8.31709 292.871C13.8458 296.091 19.3666 295.005 25.1909 293.015Z" fill="#975237" stroke="white" stroke-width="1.84"/>
<path fill-rule="evenodd" clip-rule="evenodd" d="M101.698 331.213C101.718 331.389 101.694 331.568 101.626 331.732C101.235 332.683 99.6929 332.419 98.9179 332.236C96.8566 331.732 94.9631 330.741 93.9165 333.314C94.0124 333.082 93.9165 332.579 94.0284 332.275C94.1637 331.854 94.384 331.466 94.6755 331.133C95.4037 330.336 96.3217 329.737 97.344 329.391C97.8103 329.194 98.3116 329.092 98.8181 329.092C99.3245 329.092 99.8258 329.194 100.292 329.391C100.643 329.577 100.95 329.836 101.193 330.15C101.435 330.464 101.608 330.826 101.698 331.213Z" fill="#975237"/>
<path fill-rule="evenodd" clip-rule="evenodd" d="M89.3147 337.469C92.3187 332.803 99.6371 332.907 101.954 336.47C102.945 338.004 102.929 340.345 101.491 341.096C98.9979 342.398 97.9913 338.515 96.2496 336.997C94.0445 335.112 92.2468 336.31 89.3147 337.469Z" fill="#975237"/>
<path fill-rule="evenodd" clip-rule="evenodd" d="M45.9076 167.516C46.2831 159.455 55.5589 154.229 61.0876 157.058C63.4445 158.264 65.1463 161.22 63.892 163.21C61.6948 166.677 57.5962 162.523 54.3046 161.891C50.134 161.092 48.7518 163.897 45.9076 167.516Z" fill="#975237"/>
<path fill-rule="evenodd" clip-rule="evenodd" d="M76.5715 44.8531C76.4639 45.0037 76.3249 45.1291 76.164 45.2206C74.654 46.1394 73.0242 44.1341 72.3131 43.0475C70.4356 40.1952 69.4609 36.7837 65.3143 38.6053C65.6339 38.4695 66.0334 37.7425 66.4169 37.5108C67.0554 37.1858 67.7548 36.9981 68.4702 36.9595C70.1955 36.8311 71.925 37.1445 73.4956 37.8703C74.9976 38.4541 76.2128 39.6006 76.8831 41.0661C77.2346 41.9849 77.2986 43.9183 76.5715 44.8531Z" fill="#975237"/>
<path fill-rule="evenodd" clip-rule="evenodd" d="M30.1763 335.391C31.4336 334.713 32.4187 333.622 32.9658 332.302C33.5129 330.982 33.5887 329.514 33.1803 328.145C32.3175 325.54 29.657 323.735 29.2495 321.29C28.7541 318.302 31.4945 316.64 34.4427 319.069C39.3722 323.143 37.9341 333.618 30.1763 335.391Z" fill="#975237"/>
<path fill-rule="evenodd" clip-rule="evenodd" d="M64.4034 230.849C64.2805 227.449 62.9783 224.198 60.7202 221.653C59.3256 220.174 57.6351 219.006 55.7587 218.225C53.7694 217.354 51.5643 216.963 49.5669 216.076C48.6241 215.653 45.0928 213.975 44.4296 212.808C44.1321 212.351 43.9083 211.849 43.7665 211.322C43.6307 216.851 42.5761 222.628 46.5868 227.198C50.4297 231.568 58.3314 232.878 63.8681 233.949C59.4499 229.155 49.0635 228.036 47.8891 220.231C47.8172 219.743 52.2034 220.63 53.6735 221.237C55.2743 221.918 56.7428 222.876 58.0118 224.066C60.6004 226.463 62.382 229.562 64.731 232.159C64.495 231.764 64.381 231.308 64.4034 230.849Z" fill="#975237"/>
<path fill-rule="evenodd" clip-rule="evenodd" d="M37.3428 153.974C36.4007 148.852 36.3439 143.607 37.175 138.466C37.974 133.185 39.8595 126.785 42.7677 124.732C45.4122 122.863 49.4389 124.436 48.9835 127.992C48.6053 130.301 47.6914 132.49 46.315 134.383C42.7517 139.625 38.3815 145.649 37.3428 153.974Z" fill="#975237"/>
<path fill-rule="evenodd" clip-rule="evenodd" d="M27.8515 158.839C26.4657 158.631 25.1708 158.023 24.1262 157.089C23.0815 156.155 22.3325 154.936 21.9712 153.582C21.6676 152.504 21.6117 151.353 21.2921 150.275C21.1403 149.763 20.4931 147.878 19.9738 147.43C19.7584 147.247 19.5158 147.099 19.2547 146.991C22.091 147.295 25.1111 147.143 27.1803 149.508C29.2496 151.873 29.2896 155.899 29.4653 158.783C27.3321 156.211 27.436 150.794 23.5371 149.683C23.2894 149.619 23.4412 151.92 23.657 152.711C23.9009 153.572 24.2929 154.383 24.8154 155.108C25.8621 156.594 27.3241 157.713 28.4986 159.103C28.3129 158.954 28.0881 158.863 27.8515 158.839Z" fill="#975237"/>
<path fill-rule="evenodd" clip-rule="evenodd" d="M23.0099 323.495C22.9531 323.752 22.979 324.02 23.0837 324.261C23.1885 324.502 23.3668 324.704 23.5931 324.837C25.7662 326.395 29.4814 323.759 29.8649 327.738C29.793 326.939 30.2004 326.435 29.8089 325.516C29.3646 324.568 28.6921 323.744 27.8515 323.12C26.8452 322.422 25.6103 322.136 24.4 322.321C24.0829 322.37 23.7854 322.506 23.5402 322.713C23.295 322.92 23.1116 323.191 23.0099 323.495Z" fill="#975237"/>
<path fill-rule="evenodd" clip-rule="evenodd" d="M33.0845 333.035C31.5425 327.706 24.5037 325.7 21.26 328.481C19.8778 329.663 19.2147 331.916 20.3812 333.043C22.3945 335.008 24.4718 331.572 26.581 330.646C29.2495 329.423 30.6077 331.085 33.0845 333.035Z" fill="#975237"/>
<path fill-rule="evenodd" clip-rule="evenodd" d="M41.0824 29.2416C41.1102 29.3967 41.1701 29.5443 41.2581 29.675C41.3461 29.8056 41.4604 29.9165 41.5937 30.0006C42.6403 30.7197 44.5338 29.1298 45.4047 28.6424C45.9752 28.2094 46.6699 27.9713 47.3861 27.9633C47.8175 28.0192 49.2077 28.6664 49.1757 29.2017C49.3036 26.645 44.4939 25.8301 42.7841 26.6051C42.0331 26.9646 40.9066 28.2509 41.0824 29.2416Z" fill="#975237"/>
<path fill-rule="evenodd" clip-rule="evenodd" d="M26.4531 350.452C85.9749 338.068 104.199 299.718 79.5833 249.384C65.7375 221.086 45.7478 203.253 35.641 173.252C33.2578 166.369 31.846 159.186 31.4466 151.912C30.8314 137.875 31.9419 133.736 32.8447 150.714C33.2109 157.92 34.5548 165.042 36.8395 171.886C46.9142 201.887 69.3887 222.22 83.1786 250.583C106.172 297.825 87.9723 340.465 29.2494 353.248L26.4531 350.452Z" fill="#975237"/>
<path d="M80.2943 279.473C80.2943 278.418 80.3662 277.364 80.3662 276.277C80.303 265.035 77.852 253.935 73.1757 243.712C67.5191 231.192 61.8066 218.697 56.198 206.161C50.3097 193.01 32.0137 159.175 32.0297 135.782C32.0297 127.329 34.4266 120.322 40.4826 116.04C42.0584 114.887 43.9552 114.256 45.9075 114.234C50.1739 114.234 53.6972 117.43 53.7052 121.425C53.7062 121.71 53.6876 121.996 53.6493 122.279L54.4483 122.375C54.4866 122.06 54.5052 121.742 54.5042 121.425C54.5042 116.966 50.5654 113.435 45.9075 113.435C43.7893 113.454 41.7301 114.135 40.0192 115.384C33.6276 119.867 31.2308 127.201 31.2308 135.782C31.2308 159.534 49.6066 193.362 55.4709 206.481C61.0636 219.024 66.792 231.52 72.4486 244.031C77.0908 254.162 79.5229 265.165 79.5832 276.309C79.5832 277.348 79.5832 278.394 79.5113 279.441C78.1052 311.711 53.0022 330.534 33.9232 337.692L34.2108 338.443C53.4735 331.253 78.8722 312.19 80.3183 279.473H80.2943Z" fill="#975237"/>
<path fill-rule="evenodd" clip-rule="evenodd" d="M21.604 179.077C21.604 179.393 21.6977 179.702 21.8733 179.965C22.0489 180.227 22.2984 180.432 22.5904 180.553C22.8824 180.674 23.2037 180.706 23.5136 180.644C23.8236 180.582 24.1083 180.43 24.3318 180.207C24.5553 179.983 24.7074 179.698 24.7691 179.389C24.8308 179.079 24.7991 178.757 24.6782 178.465C24.5572 178.173 24.3524 177.924 24.0896 177.748C23.8269 177.573 23.5179 177.479 23.2019 177.479C22.7781 177.479 22.3717 177.647 22.072 177.947C21.7724 178.247 21.604 178.653 21.604 179.077Z" fill="#975237"/>
<path fill-rule="evenodd" clip-rule="evenodd" d="M95.5625 60.0331C95.5625 60.3492 95.6562 60.6581 95.8318 60.9209C96.0074 61.1837 96.2569 61.3885 96.5489 61.5094C96.8409 61.6303 97.1622 61.662 97.4721 61.6003C97.7821 61.5387 98.0668 61.3865 98.2903 61.163C98.5138 60.9396 98.6659 60.6548 98.7276 60.3449C98.7893 60.0349 98.7576 59.7136 98.6367 59.4217C98.5157 59.1297 98.3109 58.8801 98.0481 58.7045C97.7854 58.529 97.4764 58.4352 97.1604 58.4352C96.7366 58.4352 96.3302 58.6036 96.0305 58.9033C95.7308 59.2029 95.5625 59.6094 95.5625 60.0331Z" fill="#975237"/>
<path fill-rule="evenodd" clip-rule="evenodd" d="M23.8645 353.671C24.6492 356.605 25.93 359.383 27.6516 361.885C29.4013 364.465 32.0059 367.357 34.0432 367.709C35.9127 368.029 37.6305 366.183 36.496 364.425C35.7153 363.308 34.6837 362.388 33.4839 361.741C30.3281 359.871 26.5091 357.794 23.8645 353.671Z" fill="#975237"/>
<path d="M93.4053 304.272C95.9252 297.838 97.1995 290.984 97.1604 284.075C97.1604 267.097 90.0897 250.303 82.3718 235.339C79.6793 230.13 76.9709 224.393 76.9709 218.561C76.9764 217.759 77.0325 216.959 77.1387 216.164C77.9856 209.772 82.9231 204.18 88.324 204.228C91.2242 204.228 94.3321 205.77 97.2083 209.724L97.8555 209.261C94.8914 205.162 91.5198 203.429 88.324 203.429C82.3239 203.429 77.2186 209.389 76.3397 216.052C76.2287 216.895 76.1727 217.743 76.172 218.593C76.172 224.705 78.9603 230.577 81.6607 235.77C89.3626 250.631 96.3614 267.321 96.3614 284.075C96.3972 290.883 95.142 297.636 92.6623 303.977C89.099 313.029 83.2666 320.635 77.2985 327.01L77.8817 327.554C83.8898 321.162 89.7861 313.452 93.4053 304.272Z" fill="#975237"/>
<path fill-rule="evenodd" clip-rule="evenodd" d="M12.9031 266.378C13.1257 266.413 13.3367 266.501 13.5183 266.634C14.6768 267.505 13.4304 269.558 13.031 270.541C12.682 271.163 12.521 271.874 12.5676 272.586C12.6635 273.057 13.5023 274.44 14.1016 274.312C11.6248 274.823 10.1068 270.317 10.5303 268.559C10.73 267.624 11.2972 266.162 12.9031 266.378Z" fill="#975237"/>
<path fill-rule="evenodd" clip-rule="evenodd" d="M17.7051 279.361C13.4147 275.846 14.3495 268.583 18.1844 266.698C19.7823 265.899 22.1792 266.178 22.7225 267.688C23.7372 270.325 19.7584 270.884 18.0566 272.434C15.8994 274.4 16.8901 276.325 17.7051 279.361Z" fill="#975237"/>
<path fill-rule="evenodd" clip-rule="evenodd" d="M40.6184 325.285C40.9287 325.327 41.2197 325.459 41.4555 325.665C41.6912 325.871 41.8613 326.142 41.9445 326.443C42.0277 326.745 42.0204 327.065 41.9235 327.363C41.8266 327.66 41.6444 327.923 41.3996 328.118C41.1547 328.313 40.8579 328.432 40.546 328.46C40.2342 328.488 39.921 328.423 39.6455 328.275C39.3699 328.126 39.1441 327.9 38.9961 327.624C38.848 327.348 38.7843 327.035 38.8128 326.723C38.8324 326.508 38.8953 326.299 38.9977 326.11C39.1001 325.92 39.2398 325.753 39.4085 325.618C39.5773 325.484 39.7714 325.385 39.9794 325.328C40.1873 325.27 40.4047 325.256 40.6184 325.285Z" fill="#975237"/>
</svg>
