<svg width="106" height="198" viewBox="0 0 106 198" fill="none" xmlns="http://www.w3.org/2000/svg">
<path d="M30 130.74C30.368 127.134 31.037 123.565 32 120.07C37.35 100.56 57.59 86.77 70 72.5C75.62 66.1 82.2 56.79 83.18 47.02C83.95 39.37 81.42 31.43 72.26 24.02L72.98 23.14C82.38 30.69 85.15 39.14 84.32 47.14C83.31 57.3 76.58 66.76 70.91 73.3C58.27 87.7 39.46 101.86 34.33 120.8C33.3765 124.232 32.7076 127.738 32.33 131.28C29.33 160.28 47.12 182.19 71.21 196.92L70.61 197.92C46.35 183.1 26.95 160.43 29.98 130.82L30 130.74Z" fill="#975237"/>
<path fill-rule="evenodd" clip-rule="evenodd" d="M58.63 18.0801C56.95 14.8001 55.75 11.8401 53.53 9.33008C50.63 6.05008 47.38 5.73008 44.25 2.58008C44.59 5.25008 44.77 8.38008 46.56 10.6801C49.08 13.9001 54 14.0001 56.64 16.3801C54.22 13.9901 49.46 12.8601 48.73 8.14008C52.48 9.69008 55.87 13.3601 58.63 18.0801Z" fill="#975237"/>
<path fill-rule="evenodd" clip-rule="evenodd" d="M55.48 15.38C56.34 12.83 57.28 10.71 57.48 8.28C57.72 5.09 56.23 3.28 56.29 0C55.07 1.53 53.53 3.23 53.24 5.32C52.83 8.27 55.24 10.89 55.38 13.47C55.38 11 53.58 7.94 55.66 5.16C56.7 7.93 56.48 11.55 55.48 15.38Z" fill="#975237"/>
<path d="M67.96 49.0601C67.96 49.0601 66.64 50.4301 65.35 49.6001C64.1823 48.7641 63.3132 47.576 62.87 46.2101C62.62 45.3001 62.24 45.2101 61.77 44.1401C61.3 43.0701 61.15 43.1401 61.04 42.2401C61.0285 41.8329 60.9131 41.4355 60.7049 41.0855C60.4966 40.7354 60.2023 40.4444 59.85 40.2401C58.6312 39.2328 57.6308 37.9874 56.91 36.5801C56.55 35.5801 56.91 34.5801 56.57 33.3301C56.15 31.8701 55.14 29.5901 55.88 28.0601C56.14 27.5101 56.64 27.2601 57.01 26.8501C58.48 29.0801 57.48 32.3001 58.48 34.6701C59.24 36.6101 60.26 39.1801 61.68 40.6701C60.6605 39.1706 59.8214 37.5561 59.18 35.8601C58.6785 34.6174 58.3683 33.3058 58.26 31.9701C58.16 30.7001 58.43 27.8401 57.58 26.1801C58.35 26.9801 59.13 30.1801 59.73 30.9901C61.58 33.4501 62.87 42.6501 64.06 45.1601C62.94 40.8701 60.6 28.8001 58.06 25.8301C59.37 27.3301 61.06 27.5601 64.61 32.5401C63.2576 29.9431 61.4095 27.6363 59.17 25.7501C57.82 24.7501 58.25 23.7501 58.09 22.3401C58.09 22.3401 62.37 24.2701 63.32 26.3401C64.27 28.4101 65.81 31.5901 66.02 34.6101C66.23 37.6301 66.18 42.0501 66.18 43.5501C66.1514 44.7998 66.481 46.0317 67.13 47.1001C67.4566 47.7311 67.7341 48.3864 67.96 49.0601Z" fill="#975237"/>
<path d="M57.2099 21.55C56.0999 25.55 50.68 30.34 47.3 31.96C50.3 29.75 55.1999 25.45 56.5099 21.09C54.5099 21.42 50.5099 25.09 48.8799 26.3C46.7499 27.87 41.8799 31.53 39.7099 33C38.8595 33.5147 38.0564 34.1037 37.31 34.76C43.25 30.93 50.31 24.15 56.05 19.96C53.16 22.06 49.05 22.38 45.94 24.01C42.83 25.64 38.7799 28.45 34.7699 31.14C47.6499 21.14 52.63 19.78 55.55 19.14C52.5823 18.8617 49.5911 18.9659 46.6499 19.45C43.2267 20.1215 39.8775 21.1263 36.6499 22.45C39.8925 21.036 43.2349 19.8628 46.6499 18.94C49.2099 18.43 52.41 17.88 54.3099 17.6C50.3899 17.06 42.7 18.34 38.78 20.13C36.24 21.3 33.9999 22.41 34.1599 24.29C34.3199 26.17 34.5799 26.42 34.1599 27.16C33.7399 27.9 33.71 28.45 33.97 28.69C34.23 28.93 34.38 29.08 34.25 29.83C34.1703 30.6241 34.3643 31.4214 34.8 32.09C35.17 32.6 35.3799 32.53 35.4599 32.99C35.5096 33.666 35.7186 34.3205 36.0699 34.9C36.1791 35.1107 36.3304 35.2966 36.5145 35.4463C36.6986 35.5959 36.9115 35.7062 37.14 35.77C37.5543 36.186 38.0566 36.5037 38.61 36.7C39.61 37.05 40.87 36.7 42.22 36.41C44.9852 35.5351 47.558 34.1401 49.8 32.3C52.4 30.14 54.4699 28.47 55.2699 27.18C55.9599 26.13 57.7099 23.74 57.2099 21.55Z" fill="#975237"/>
<path d="M35.42 20.9601C34.9336 20.7379 34.5133 20.3933 34.2 19.9601C33.9323 19.4126 33.5121 18.9542 32.99 18.6401C32.39 18.2701 31.99 17.9101 32.19 17.4301C32.39 16.9501 32.94 16.5801 32.98 16.2901C33.02 16.0001 33.1 15.8701 33.77 15.7901C34.44 15.7101 37.2 15.5701 38.09 15.5701C39.7478 15.3602 41.4201 15.2866 43.09 15.3501C44.66 15.6001 45.44 16.0001 46.36 16.1401C47.142 16.3494 47.9371 16.5065 48.74 16.6101C49.3145 16.642 49.886 16.7155 50.45 16.8301C48.5645 16.8303 46.6842 17.0281 44.84 17.4201C42.8462 17.856 40.8768 18.3968 38.94 19.0401C37.9074 19.4797 36.9052 19.9875 35.94 20.5601L35.42 20.9601Z" fill="#975237"/>
<path d="M31.34 15.4101C30.4313 15.4074 29.5257 15.3035 28.64 15.1001C28.3208 15.0382 28.0343 14.8639 27.8325 14.6089C27.6307 14.3539 27.5269 14.035 27.54 13.7101C27.5247 13.4297 27.5755 13.1496 27.6884 12.8925C27.8014 12.6354 27.9732 12.4085 28.19 12.2301L28.65 11.9901C28.65 11.9901 28.45 12.3301 28.8 12.4301C29.6987 12.3204 30.5814 12.1056 31.43 11.7901C33.1978 11.3728 35.0163 11.2111 36.83 11.3101C40.0103 11.5252 43.1513 12.1366 46.18 13.1301C48.4823 13.858 50.6755 14.8941 52.7 16.2101C51.1268 15.6018 49.5086 15.117 47.86 14.7601C46.4268 14.4224 45.0171 13.9915 43.64 13.4701C40.91 12.6001 38.08 11.6901 35.16 13.2201C38.6 11.6101 42.16 13.1401 45.84 14.4101C48.4 15.3001 50.94 15.4801 53.37 16.7801C51.64 16.5701 49.86 15.7801 48.15 15.4401C45.2137 14.5696 42.1455 14.2309 39.09 14.4401C36.4857 14.5651 33.8948 14.8893 31.34 15.4101Z" fill="#975237"/>
<path d="M34.48 33.03C34.48 33.03 32.4 33.18 31.91 32.63C31.42 32.08 31.05 31.42 31.15 31.08L31.25 30.73C31.0607 30.6034 30.8891 30.4521 30.74 30.28C30.38 29.91 30.39 29.81 30.58 29.28C30.77 28.75 31.03 28.53 30.9 28.28C30.77 28.03 30.26 27.96 30.1 27.61C30.0503 27.3926 30.0469 27.1672 30.0899 26.9484C30.133 26.7296 30.2216 26.5223 30.35 26.34L30.66 25.72C30.5498 25.4501 30.4124 25.1921 30.25 24.95C30.03 24.65 29.77 24.3 30 23.86C30.5522 22.9949 31.2257 22.2136 32 21.54C32.3538 21.3037 32.6882 21.0395 33 20.75C33.3075 21.0745 33.642 21.3722 34 21.64L34.3 21.79C33.9221 22.2481 33.5873 22.7402 33.3 23.26C33.1505 24.1123 33.1949 24.9873 33.43 25.82C33.58 26.26 33.22 26.89 33.01 27.49C32.8641 28.134 32.9677 28.8094 33.3 29.38C33.56 29.74 33.24 30.16 33.37 30.97C33.5 31.78 33.46 32.09 33.88 32.42C34.1075 32.5943 34.3095 32.7997 34.48 33.03Z" fill="#975237"/>
<path d="M48.05 50.09C47.3794 50.4683 46.6007 50.6093 45.84 50.49C45.0782 50.239 44.407 49.7695 43.91 49.14C43.6441 48.6789 43.4902 48.1618 43.4607 47.6303C43.4312 47.0988 43.5268 46.5678 43.74 46.08C44.24 45.08 44.64 44.25 44.64 44.25C44.64 44.25 45.09 42.85 45.39 42.2C45.69 41.55 46.47 40.72 46.56 40.14C46.6331 39.5663 46.6699 38.9884 46.67 38.41C46.7415 37.5236 46.9125 36.6481 47.18 35.8C47.18 35.8 49.82 34.22 50.4 33.71C51.4324 32.9116 52.4143 32.05 53.34 31.13C53.7925 30.6282 54.207 30.0934 54.58 29.53C54.5543 30.2594 54.6249 30.9891 54.79 31.7C55.07 32.79 55.58 33.37 55.44 34.59C55.2677 35.5072 55.3614 36.4544 55.71 37.32L56 37.72C54.8964 39.2477 53.6581 40.6734 52.3 41.98C50.588 43.276 49.0162 44.7473 47.61 46.37C47.17 47.04 45.81 48.45 46.02 49.37C46.099 49.5566 46.2159 49.7247 46.3634 49.8636C46.5108 50.0025 46.6856 50.1092 46.8765 50.177C47.0674 50.2447 47.2704 50.2719 47.4724 50.257C47.6744 50.242 47.8711 50.1851 48.05 50.09Z" fill="#975237"/>
<path d="M42.08 48.7101C42.08 48.7101 40.7 47.0801 40.92 46.3701C41.0032 45.3134 41.3209 44.2885 41.85 43.3701C42.65 42.3701 43.92 40.5901 43.85 39.6301C43.78 38.6701 43.51 37.0501 43.51 37.0501C43.51 37.0501 43.59 36.9001 44.6 36.5301C45.1213 36.3524 45.6184 36.1105 46.08 35.8101C46.08 35.8101 45.87 37.1501 45.75 38.2401C45.8364 39.3396 45.5927 40.4399 45.05 41.4001C44.16 43.0501 43.66 44.2401 43.16 45.0601C42.5891 45.7679 42.3006 46.6621 42.35 47.5701C42.48 48.7201 42.08 48.7101 42.08 48.7101Z" fill="#975237"/>
<path d="M40.1799 46.3601C39.7099 46.3423 39.2419 46.2889 38.7799 46.2001C38.4883 46.032 38.2659 45.7658 38.1523 45.4489C38.0388 45.132 38.0415 44.7851 38.1599 44.4701C38.3459 43.562 38.4364 42.637 38.4299 41.7101C38.4799 40.7101 38.3399 39.2201 38.7399 38.6501L39.1499 38.0801C39.6835 37.9551 40.2247 37.8649 40.7699 37.8101C41.3101 37.7728 41.8422 37.6583 42.3499 37.4701L42.7999 37.3301C43.0248 37.9713 43.0967 38.6562 43.0099 39.3301C42.8441 40.6225 42.3055 41.8387 41.4599 42.8301C40.5799 44.1201 40.3499 44.5501 40.3799 45.3501C40.4132 45.7193 40.4132 46.0908 40.3799 46.4601L40.1799 46.3601Z" fill="#975237"/>
<path d="M37.77 41.5601C37.77 41.5601 37.7001 40.5601 37.7001 39.9601C37.7001 39.3601 37.62 38.7401 37.99 38.3801L38.3701 38.0101C38.0182 37.5948 37.5863 37.2547 37.1 37.0101C36.4635 36.741 35.906 36.3142 35.4801 35.7701C35.141 35.2686 34.8876 34.7145 34.7301 34.1301C34.688 33.8989 34.6175 33.6738 34.52 33.4601C34.0915 33.5887 33.6371 33.606 33.2001 33.5101C32.6901 33.3301 32.5301 33.5101 32.5301 33.5101C32.5301 33.5101 32.1301 33.5101 32.1201 34.2801C32.1101 35.0501 32.5701 35.1401 32.4701 35.7601C32.3701 36.3801 32.47 36.7601 32.1 37.1201L31.7301 37.4801C31.7301 37.4801 31.6801 37.7501 32.1101 37.8701L32.5501 37.9801C32.4389 38.1047 32.3665 38.2591 32.3417 38.4242C32.3168 38.5894 32.3406 38.7582 32.41 38.9101C32.63 39.4701 32.7201 39.2201 33.3301 39.4201C33.9401 39.6201 34.2201 40.1401 34.7201 40.3201C35.2201 40.5001 35.0301 40.0001 35.9501 40.5101L37.77 41.5601Z" fill="#975237"/>
<path d="M31.64 36.1801L30.37 35.5601C30.07 35.4101 30.2 35.3201 30.24 35.0101C30.28 34.7001 30.43 34.4101 30.09 34.3001C29.75 34.1901 29.78 33.8901 30.04 33.6101C30.3 33.3301 30.74 32.8201 30.54 32.4201C30.34 32.0201 29.9 31.7901 30.04 31.2301L30.18 30.6801L30.53 31.1501C30.53 31.1501 30.53 31.1501 30.72 31.9201C30.91 32.6901 30.78 32.9201 31.22 33.1101L31.66 33.3401C31.66 33.3401 31.66 33.8001 31.53 34.5301C31.444 34.9517 31.5076 35.3902 31.71 35.7701L31.85 36.2101L31.64 36.1801Z" fill="#975237"/>
<path fill-rule="evenodd" clip-rule="evenodd" d="M61.88 22.4C63.14 24.78 64.04 26.91 65.68 28.72C67.83 31.08 70.2 31.28 72.51 33.54C72.23 31.6 72.07 29.32 70.74 27.67C68.88 25.35 65.29 25.32 63.35 23.67C65.14 25.39 68.61 26.16 69.19 29.59C66.42 28.44 63.94 25.81 61.88 22.4Z" fill="#975237"/>
<path fill-rule="evenodd" clip-rule="evenodd" d="M87.1599 33.66C88.3199 22.23 70.39 9.85003 59.42 20.4C60.5 17.93 62.0499 15.81 64.5099 15.24C61.9199 13.49 58.7799 10.62 58.0699 7.46003C57.3599 4.30003 58.4499 -1.53997 63.0699 2.19003C67.8199 -2.47997 75.4799 4.90003 69.7399 10.11C69.3599 10.0791 68.9823 10.0223 68.61 9.94003C72.87 5.56003 67.24 0.940032 63.61 4.68003C59.19 9.28003 65.05 12.98 68.42 13.9C77.79 16.45 87.6999 20.78 87.5699 32.63L87.1599 33.66Z" fill="#975237"/>
<path fill-rule="evenodd" clip-rule="evenodd" d="M88.25 39.9801C90.17 34.3701 92.25 29.7001 92.67 24.3201C93.22 17.3201 89.96 13.2101 90.1 6.08008C87.4 9.45008 83.99 13.1601 83.33 17.7901C82.42 24.2901 87.8 30.0801 88 35.7901C88.06 30.3301 84.06 23.5901 88.69 17.4701C91.11 23.5601 90.62 31.5301 88.25 39.9801Z" fill="#975237"/>
<path fill-rule="evenodd" clip-rule="evenodd" d="M39.07 149.6C38.71 153.38 36.07 154.11 34.82 148.98C33.57 143.85 30.19 131.62 40.61 116.04C51.0301 100.46 71.2901 87.19 79.25 78.86C87.3101 70.86 90.82 63.57 85.74 57.59C81.16 52.21 75.47 52.96 72.92 53.44C69.72 54.05 68.33 54.03 73.38 50.02C78.43 46.01 93.78 42.27 101.65 53.65C109.52 65.03 101.45 72.65 99.02 74.44C96.85 76.16 96.31 76.36 98.55 77.44C100.79 78.52 103.86 80.93 102.61 85.57C100.33 94.05 83.34 98.71 75.99 100.57C89.82 100.31 91.1101 123.24 80.39 128.57C88.53 120.3 74.85 115.67 67.62 116.75C48.07 119.61 40.83 131.09 39.07 149.6Z" fill="#975237"/>
<path fill-rule="evenodd" clip-rule="evenodd" d="M38.13 131.38C39.99 125.25 41.13 119.85 44.13 114.87C48.13 108.38 53.54 106.87 57.92 100.51C58.16 105.16 58.81 110.57 56.45 115.05C53.14 121.31 44.76 122.99 40.99 127.86C44.39 123.04 52.16 119.65 51.99 111.36C46 115.18 41.39 122.48 38.13 131.38Z" fill="white"/>
<path fill-rule="evenodd" clip-rule="evenodd" d="M65.75 96.36C70.63 92.21 74.5 88.28 79.75 85.73C86.59 82.41 92.01 84.07 99.12 81.11C96.8 85.11 94.42 90.05 90.02 92.54C83.85 96.03 75.89 92.91 70.08 94.95C75.55 92.74 83.92 94.09 88.24 87.02C81.13 87 73.31 90.64 65.75 96.36Z" fill="white"/>
<path fill-rule="evenodd" clip-rule="evenodd" d="M89.0401 70.3001C94.8801 61.1301 88.9601 50.1101 76.8201 51.2301C92.8801 45.6101 100.73 52.5101 100.53 61.2301C100.43 65.2301 98.2501 68.4801 95.3601 70.8901C92.7101 73.0901 86.8901 74.5101 85.5901 78.1801C87.7101 71.1301 98.4501 69.4801 95.9901 60.4401C95.4801 65.7101 91.4801 66.5101 89.0401 70.3001Z" fill="white"/>
<path fill-rule="evenodd" clip-rule="evenodd" d="M65.91 112.98C74.23 107.56 85.91 111.51 84.3 122.2C88.8 108.45 81.58 102.74 73.6 103.02C69.9 103.15 67 105.17 64.83 107.84C62.83 110.28 62.07 114.99 58.74 116.21C65.16 114.21 66.56 104.38 74.85 106.54C70.08 107.02 69.39 110.71 65.91 112.98Z" fill="white"/>
<path fill-rule="evenodd" clip-rule="evenodd" d="M27.12 123.3C16.84 107.72 33.33 76.4 57.12 83.3C53.71 80.55 49.88 78.67 45.9 79.71C48.32 75.23 50.68 68.71 49.32 63.71C47.96 58.71 41.99 51.01 38.15 59.89C27.75 56.69 22.27 73.09 34.48 76.3C35.0062 75.9658 35.5105 75.5984 35.99 75.2C26.55 72.11 31.15 61.15 39.23 63.86C49.05 67.16 43.4 76.86 39.23 80.76C27.66 91.49 16.66 105.19 25.78 122.13L27.12 123.3Z" fill="#975237"/>
<path fill-rule="evenodd" clip-rule="evenodd" d="M30.22 127.97C23.58 123.88 17.57 120.88 12.65 115.78C6.23 109.12 6.11 102.23 0 95.11C5.56 96.27 12.12 97.18 16.66 101.34C23.02 107.17 22.4 117.55 26.96 123.5C22.34 118 20.75 107.81 10.96 105.5C13.59 113.7 20.75 121.38 30.22 127.97Z" fill="#975237"/>
<path fill-rule="evenodd" clip-rule="evenodd" d="M29.7 126.3C28.27 120.74 26.62 116.07 26.62 110.84C26.62 104.03 30.08 100.31 30.48 93.41C32.84 96.87 35.86 100.71 36.14 105.24C36.52 111.58 30.89 116.77 30.26 122.24C30.62 116.96 34.99 110.74 30.99 104.49C28.18 110.18 28.05 117.92 29.7 126.3Z" fill="#975237"/>
<path d="M56.37 163.78C56.8476 158.683 58.3475 153.735 60.78 149.23C66 139.85 79.5 132.74 90.09 133.81C95.32 134.35 101.94 136.63 105.75 140.53L105.01 141.24C101.415 137.659 96.6677 135.466 91.61 135.05C81.42 134 70.13 139.05 65.17 148C62.8043 152.384 61.3453 157.2 60.88 162.16C59.73 173.33 63.12 185.45 72.11 192.86L71.46 193.65C62.14 185.96 55.2 175.21 56.37 163.78Z" fill="#975237"/>
<path fill-rule="evenodd" clip-rule="evenodd" d="M41.6 164.44C41.05 158.72 40.14 153.86 40.95 148.69C42.01 141.96 46.01 138.83 47.47 132.07C49.27 135.85 51.65 140.07 51.22 144.63C50.62 150.96 44.22 155.21 42.78 160.54C43.95 155.38 49.24 149.92 46.25 143.11C42.59 148.3 41.26 155.94 41.6 164.44Z" fill="#975237"/>
<path fill-rule="evenodd" clip-rule="evenodd" d="M64.31 183.43C59.88 175.43 59.67 168.43 65.39 159.63C69.28 153.63 78.76 147.43 86.95 153.72C91.04 156.87 92.84 162.72 89.53 166.72C86.22 170.72 81.96 170.05 79.36 168.06C78.8493 167.702 78.4183 167.242 78.0939 166.71C77.7696 166.177 77.559 165.583 77.4754 164.965C77.3918 164.347 77.437 163.718 77.6082 163.118C77.7794 162.519 78.0728 161.961 78.47 161.48C79.1661 160.676 80.1339 160.156 81.1889 160.019C82.2438 159.883 83.3122 160.139 84.19 160.74C86.08 162.21 86.45 165.29 84.83 166.05C83.21 166.81 83.5 167.84 85.11 167.67C87.17 167.38 92.68 160.61 85.88 155.39C81.09 151.71 72.88 154.58 69.45 158.72C66.02 162.86 61.88 169.52 63.73 176.51C65.58 183.5 68.47 189.02 69.16 190.96C66.87 189.36 65.42 184.47 64.31 183.44V183.43Z" fill="#975237"/>
</svg>
